<svg width="120" height="38" viewBox="0 0 120 38" fill="none" xmlns="http://www.w3.org/2000/svg">
<path d="M63.3799 9.68511C63.3799 11.0154 62.3051 12.0866 60.9714 12.0866C59.6376 12.0866 58.5636 11.0154 58.5636 9.68511C58.5636 8.35479 59.601 7.28359 60.9714 7.28359C62.3429 7.3205 63.3799 8.39207 63.3799 9.68511ZM53.4513 14.5258V15.1171C53.4513 15.1171 52.3034 13.6384 49.8582 13.6384C45.8207 13.6384 42.6713 16.7055 42.6713 20.9544C42.6713 25.1669 45.7837 28.2704 49.8582 28.2704C52.3404 28.2704 53.4513 26.7556 53.4513 26.7556V27.3834C53.4513 27.6791 53.6741 27.9002 53.9702 27.9002H56.9704V14.0068H53.9702C53.6741 14.0079 53.4513 14.267 53.4513 14.5258ZM53.4513 23.4301C52.8962 24.2433 51.7845 24.9454 50.4511 24.9454C48.0804 24.9454 46.2648 23.4674 46.2648 20.9544C46.2648 18.4418 48.0804 16.9638 50.4511 16.9638C51.7479 16.9638 52.9332 17.7028 53.4513 18.4787V23.4301ZM59.1935 14.0079H62.7496V27.9013H59.1935V14.0079ZM112.317 13.6381C109.872 13.6381 108.723 15.1167 108.723 15.1167V7.32051H105.167V27.9013H108.168C108.464 27.9013 108.686 27.6426 108.686 27.3838V26.7559C108.686 26.7559 109.835 28.2708 112.279 28.2708C116.317 28.2708 119.466 25.168 119.466 20.9555C119.466 16.7431 116.317 13.6381 112.317 13.6381ZM111.724 24.9081C110.353 24.9081 109.279 24.2068 108.723 23.3932V18.4418C109.279 17.7028 110.464 16.9269 111.724 16.9269C114.095 16.9269 115.91 18.4049 115.91 20.9175C115.91 23.4301 114.095 24.9081 111.724 24.9081ZM103.315 19.6618V27.9382H99.758V20.0678C99.758 17.7774 99.0171 16.8531 97.0179 16.8531C95.944 16.8531 94.8322 17.4075 94.1272 18.2207V27.9017H90.5719V14.0083H93.3863C93.6828 14.0083 93.9052 14.267 93.9052 14.5258V15.1171C94.9425 14.0452 96.3129 13.6384 97.6833 13.6384C99.2395 13.6384 100.536 14.0825 101.574 14.9691C102.833 16.0038 103.315 17.3337 103.315 19.6618ZM81.939 13.6381C79.4946 13.6381 78.3459 15.1167 78.3459 15.1167V7.32051H74.7898V27.9013H77.79C78.0865 27.9013 78.3089 27.6426 78.3089 27.3838V26.7559C78.3089 26.7559 79.4576 28.2708 81.902 28.2708C85.9403 28.2708 89.089 25.168 89.089 20.9555C89.126 16.7427 85.9773 13.6381 81.939 13.6381ZM81.3462 24.9081C79.9757 24.9081 78.9018 24.2068 78.3459 23.3932V18.4418C78.9018 17.7028 80.0871 16.9269 81.3462 16.9269C83.7176 16.9269 85.5325 18.4049 85.5325 20.9175C85.5325 23.4301 83.7176 24.9081 81.3462 24.9081ZM71.7148 13.6381C72.7888 13.6381 73.3446 13.8233 73.3446 13.8233V17.1115C73.3446 17.1115 70.3811 16.1137 68.5292 18.2203V27.9379H64.9723V14.0079H67.9733C68.2697 14.0079 68.4914 14.2667 68.4914 14.5254V15.1167C69.159 14.3405 70.6038 13.6381 71.7148 13.6381ZM34.7812 26.6448C34.5961 26.2015 34.4107 25.7213 34.2257 25.3145C33.9289 24.6497 33.6325 24.0211 33.3738 23.4301L33.3368 23.3932C30.7802 17.8505 28.0394 12.2346 25.1495 6.69263L25.0384 6.47041C24.7345 5.89549 24.4383 5.31654 24.1499 4.7337C23.7791 4.06817 23.409 3.36683 22.8161 2.7013C21.6307 1.22333 19.9265 0.410156 18.1117 0.410156C16.259 0.410156 14.5922 1.22334 13.3702 2.62711C12.8143 3.2919 12.4065 3.99398 12.0364 4.65951C11.7473 5.24198 11.4511 5.82093 11.1479 6.39622L11.0365 6.61843C8.18389 12.1604 5.40569 17.7767 2.84955 23.319L2.81218 23.3925C2.55312 23.9846 2.25631 24.6124 1.95988 25.2769C1.77484 25.6836 1.5898 26.1269 1.40476 26.6072C0.922916 27.974 0.774507 29.2674 0.960287 30.5981C1.36775 33.3695 3.21963 35.6965 5.77614 36.7318C6.73946 37.1386 7.73979 37.3232 8.77675 37.3232C9.07318 37.3232 9.44327 37.2863 9.74008 37.249C10.9628 37.1013 12.2222 36.6953 13.4449 35.9932C14.9638 35.1431 16.4085 33.9243 18.0384 32.1507C19.6682 33.9243 21.15 35.1431 22.6318 35.9932C23.8549 36.6953 25.1139 37.1013 26.3363 37.249C26.6327 37.2866 27.0036 37.3232 27.3 37.3232C28.3373 37.3232 29.3743 37.1386 30.3003 36.7318C32.8938 35.6965 34.7086 33.3326 35.1165 30.5981C35.4107 29.3051 35.2626 28.0124 34.7812 26.6448ZM18.0743 28.5661C16.0736 26.0535 14.7769 23.6889 14.3328 21.6941C14.1477 20.8441 14.1104 20.1051 14.2217 19.4399C14.2954 18.8486 14.5182 18.3311 14.8146 17.8878C15.5185 16.8907 16.7039 16.2621 18.0747 16.2621C19.4458 16.2621 20.6682 16.8535 21.3351 17.8878C21.6315 18.3311 21.8535 18.849 21.9283 19.4399C22.0389 20.1054 22.0019 20.881 21.8169 21.6941C21.371 23.652 20.0742 26.0169 18.0743 28.5661ZM32.8545 30.3028C32.5955 32.2241 31.2987 33.8874 29.4838 34.6264C28.5949 34.9955 27.6312 35.1066 26.6686 34.9955C25.7427 34.8844 24.816 34.5887 23.8535 34.035C22.5197 33.2953 21.1863 32.1507 19.6301 30.4505C22.0749 27.458 23.5567 24.7232 24.1125 22.2851C24.3719 21.1394 24.4093 20.1051 24.2976 19.1439C24.1499 18.2203 23.8161 17.3702 23.2976 16.6313C22.1485 14.968 20.2219 14.0079 18.0739 14.0079C15.926 14.0079 13.9993 15.0056 12.851 16.6313C12.3325 17.3702 11.9987 18.2203 11.8506 19.1439C11.7026 20.1051 11.7392 21.1763 12.0357 22.2851C12.5912 24.7232 14.11 27.4946 16.5177 30.4874C14.9989 32.1872 13.6281 33.333 12.2944 34.0719C11.331 34.6264 10.4055 34.922 9.47954 35.0324C8.47958 35.1435 7.51589 34.9955 6.66397 34.6633C4.8491 33.9243 3.55233 32.261 3.29328 30.3397C3.18225 29.4162 3.2559 28.4926 3.62672 27.458C3.73737 27.0881 3.92315 26.719 4.10819 26.2757C4.36762 25.6844 4.66331 25.0558 4.96012 24.4279L4.9975 24.3544C7.55327 18.8486 10.2945 13.2324 13.147 7.76419L13.2581 7.54198C13.5549 6.9883 13.8513 6.39696 14.1474 5.84254C14.4438 5.25121 14.7769 4.69678 15.1847 4.21618C15.9626 3.33029 16.9996 2.84932 18.1483 2.84932C19.297 2.84932 20.334 3.33029 21.1119 4.21618C21.5197 4.69789 21.8528 5.25231 22.1492 5.84254C22.446 6.39696 22.7425 6.9883 23.0382 7.54198L23.1496 7.76419C25.9586 13.2551 28.6634 18.7985 31.2624 24.3913V24.4282C31.5593 25.0203 31.8183 25.6847 32.1147 26.2768C32.2998 26.7194 32.4852 27.0885 32.5962 27.4584C32.8919 28.4181 33.0029 29.3424 32.8545 30.3028Z" fill="#3B5998"/>
</svg>
