<svg width="63" height="50" viewBox="0 0 63 50" fill="none" xmlns="http://www.w3.org/2000/svg">
<g clip-path="url(#clip0_8745_58)">
<path fill-rule="evenodd" clip-rule="evenodd" d="M51.4871 28.9527C41.7212 18.8117 31.7676 8.48242 28.5748 8.48242C25.57 8.48242 15.6164 18.8117 5.85051 28.9527H5.66281C5.66281 29.141 5.85051 29.141 5.85051 29.141H6.03853C7.54078 28.2022 14.4895 22.9434 17.3067 22.9434C18.2458 22.9434 19.748 23.5068 21.4383 24.4456C19.1846 26.6996 17.3067 28.7653 17.119 28.953C17.119 29.1413 17.119 29.1413 17.3067 29.1413C18.2458 28.5776 20.4995 26.8873 22.9409 25.3848C25.5696 27.075 28.1994 28.953 28.5745 29.1413H28.7625C29.1382 28.953 31.7673 27.075 34.3967 25.3848C36.8381 26.8873 39.0918 28.5776 40.0303 29.1413C40.0303 29.1413 40.2183 29.1413 40.2183 28.953C40.0303 28.7653 37.9646 26.6996 35.7113 24.4456C37.4015 23.5071 39.0918 22.9434 40.0303 22.9434C42.8477 22.9434 49.7965 28.2022 51.2987 29.141H51.4868C51.4868 29.141 51.6745 29.141 51.6745 28.9527H51.4871ZM28.5745 11.863C29.8893 11.863 31.9553 12.8021 33.8333 13.9286C32.5187 14.3043 30.6408 15.8069 28.5745 17.6849C26.6965 15.8069 24.6308 14.3043 23.504 13.9286C25.3819 12.8021 27.4479 11.863 28.5745 11.863ZM22.9409 23.1311C21.0629 21.4408 18.9969 19.9386 17.6821 19.5628C19.748 18.2483 21.626 17.3092 22.9409 17.3092C23.8797 17.3092 25.5696 18.0603 27.2602 18.9994C25.5696 20.502 23.1286 23.1311 22.9409 23.1311ZM28.5745 28.765C28.1991 28.3896 26.5088 26.5116 24.4428 24.4453C26.1331 23.5068 27.6356 22.9431 28.5745 22.9431C29.7013 22.9431 31.2039 23.5065 32.8941 24.4453C30.8285 26.5119 29.1385 28.3899 28.5745 28.765ZM34.397 23.1311C34.209 23.1311 31.7676 20.502 30.0773 18.9994C31.7676 18.0603 33.4582 17.3092 34.397 17.3092C35.5239 17.3092 37.5895 18.2483 39.6555 19.5628C38.3407 19.9386 36.275 21.4408 34.397 23.1311ZM5.66281 39.2826H1.53115L3.59682 35.9021L5.66281 39.2826ZM-0.535156 41.1603H0.403987L1.15511 39.8454H6.03821L6.78933 41.1603H7.54046L4.16024 35.1506H3.0334L-0.535156 41.1603ZM15.053 38.1551V35.9018H18.8092C19.9357 35.9018 20.1238 36.0895 20.1238 36.6532V37.2163C20.1238 37.9678 19.748 38.1551 18.9969 38.1551H15.053ZM14.3018 41.1603H15.053V38.7189H18.9969C19.7484 38.7189 20.1238 38.9066 20.1238 39.8454V41.1603H20.8749V39.6577C20.8749 39.0946 20.6872 38.7189 19.9357 38.5312C20.4995 38.3428 21.0629 38.1551 21.0629 37.4047V36.8409C21.0629 35.7144 20.6872 35.1506 18.9969 35.1506H14.3018V41.1603Z" fill="#3B5998"/>
<path d="M28.1992 41.16H28.9503V35.1504H28.1992V41.16Z" fill="#3B5998"/>
<path fill-rule="evenodd" clip-rule="evenodd" d="M42.4709 39.658C42.4709 40.2217 42.2832 40.4094 41.5321 40.4094H37.2127V38.3431H41.3444C42.0958 38.3431 42.4709 38.5314 42.4709 39.2826V39.658ZM42.2832 37.0289C42.2832 37.5926 41.7198 37.7803 41.3444 37.7803H37.2127V35.9024H41.3444C41.7201 35.9024 42.2832 35.9024 42.2832 36.4655V37.0289ZM36.4609 41.1605H41.5317C42.4706 41.1605 43.2223 40.7851 43.2223 39.8457V39.0949C43.2223 38.3431 42.6589 37.9677 42.0955 37.9677C42.8469 37.9677 43.0343 37.4046 43.0343 37.0289V36.4651C43.0343 35.902 42.6589 35.1509 41.5317 35.1509H36.4609V41.1605ZM55.805 39.2829H51.8614L53.9273 35.9024L55.805 39.2829ZM49.7954 41.1605H50.7342L51.4856 39.8457H56.1807L56.9318 41.1605H57.871L54.3027 35.1509H53.3636L49.7954 41.1605ZM57.4953 35.9024C57.4953 35.5269 57.871 35.1509 58.2467 35.1509C58.8098 35.1509 58.9981 35.5269 58.9981 35.9024C58.9981 36.4655 58.8098 36.8412 58.2467 36.8412C57.871 36.8412 57.4953 36.4655 57.4953 35.9024ZM57.3075 35.9024C57.3075 36.4655 57.6829 37.0289 58.2464 37.0289C58.8095 37.0289 59.1852 36.4651 59.1852 35.9024C59.1852 35.5269 58.8092 34.9629 58.2464 34.9629C57.6829 34.9626 57.3075 35.5269 57.3075 35.9024ZM57.871 36.4655H58.0587V36.0901H58.2467L58.6221 36.4655H58.8098L58.4344 36.0901C58.6221 36.0901 58.8098 35.9024 58.8098 35.7147C58.8098 35.527 58.6221 35.3386 58.2467 35.3386H57.871V36.4655ZM58.0587 35.9024V35.527H58.2467C58.4344 35.527 58.6221 35.527 58.6221 35.7147C58.6221 35.9024 58.4344 35.9024 58.2467 35.9024H58.0587Z" fill="#3B5998"/>
</g>
<defs>
<clipPath id="clip0_8745_58">
<rect width="63" height="50" fill="white"/>
</clipPath>
</defs>
</svg>
