<svg width="121" height="16" viewBox="0 0 121 16" fill="none" xmlns="http://www.w3.org/2000/svg">
<path d="M10.3975 1.01347C10.3975 1.01347 10.3975 0.945312 10.6752 0.945312C13.0353 1.01347 18.7969 1.4224 25.1139 3.05814C33.3745 5.17096 36.5676 7.01117 33.9298 7.55641C31.292 8.10166 21.1571 7.82904 10.3281 14.5764C9.56451 15.0535 8.45384 15.6669 5.60775 14.8491C4.5665 14.5083 3.24758 14.0994 1.65099 13.2815C-5.01302 9.87371 13.5907 7.55641 16.8533 7.14748C20.6018 6.67039 24.4197 6.32961 21.0183 4.48941C20.1853 4.08047 18.0334 2.92183 10.6058 1.14978C10.6058 1.14978 10.3281 1.08162 10.3975 1.01347ZM54.616 2.37658C54.8242 1.76318 55.1713 1.35425 56.5597 1.35425H60.3082C62.6683 1.35425 64.1955 1.76318 65.0285 2.6492C65.5838 3.19445 65.7921 3.94416 65.6533 4.9665C65.445 7.35195 64.1955 8.71506 61.4883 9.53293L61.3494 9.60108L63.2237 14.4401C63.2931 14.5764 63.1543 14.7809 63.0154 14.7809H60.7247C60.0999 14.7809 59.5446 14.4401 59.3363 13.8949L57.948 10.2826H55.7267L54.4077 14.5083C54.3383 14.7128 54.1301 14.8491 53.9218 14.8491H51.0757C50.9369 14.8491 50.7981 14.7128 50.8675 14.5764L54.616 2.37658ZM57.6703 3.94416L56.4902 7.62457H58.7116C60.447 7.62457 61.9048 7.62457 62.113 5.44359C62.1824 5.03465 62.0436 4.69387 61.8353 4.48941C61.4883 4.08047 60.7941 3.94416 59.5446 3.94416H57.6703ZM84.6735 14.9172C82.8686 14.9172 81.272 14.2357 80.439 13.2133C79.8143 12.3955 79.606 11.305 79.9531 10.1463L80.6473 7.69272C82.0356 2.92183 84.1875 1.28609 89.0467 1.28609H89.255C91.0598 1.28609 92.6564 1.96765 93.4894 2.98998C94.1141 3.80785 94.3224 4.89834 93.9753 6.05699L93.2811 8.51059C91.8928 13.2815 90.4351 14.9172 84.8817 14.9172H84.6735ZM88.2831 4.08047C86.2701 4.14863 85.0205 5.17096 84.3264 7.62457L83.7016 9.80555C83.6322 10.1463 83.5628 10.419 83.5628 10.6916C83.7016 11.5776 84.3958 12.0547 85.6453 12.0547C87.6584 12.0547 88.9079 10.9642 89.6021 8.51059L90.2268 6.32961C90.2962 5.98883 90.3656 5.71621 90.3656 5.44359C90.2268 4.55756 89.5326 4.08047 88.2831 4.08047ZM95.9884 14.7128C96.1966 14.7128 96.4049 14.5764 96.4743 14.372L98.1403 9.05584C98.3486 9.05584 98.4874 9.19215 98.5568 9.32846L100.917 13.8949C101.195 14.4401 101.75 14.7128 102.305 14.7128H104.804C104.943 14.7128 105.082 14.5083 105.013 14.372L102.028 8.57875C101.958 8.44244 101.958 8.23797 102.097 8.16981L109.316 1.62687C109.455 1.55871 109.386 1.35425 109.178 1.35425H106.262C105.776 1.35425 105.29 1.55871 104.943 1.89949L99.251 7.14748C99.1121 7.28379 98.9039 7.35195 98.6956 7.35195L100.5 1.62687C100.57 1.49056 100.431 1.28609 100.292 1.28609H97.3767C97.1685 1.28609 96.9602 1.4224 96.9602 1.62687L92.9341 14.372C92.8646 14.5083 93.0035 14.6446 93.1423 14.6446H95.9884V14.7128ZM117.855 4.01232H114.939C113.829 4.01232 112.857 4.21678 112.718 5.44359C112.648 5.98883 113.065 6.1933 113.898 6.53408L116.328 7.35195C117.716 7.82904 118.41 8.91953 118.271 10.2826C117.855 13.963 115.078 14.7128 111.121 14.7128H106.609C106.401 14.7128 106.262 14.5764 106.262 14.372C106.54 12.0547 108.969 12.1228 108.969 12.1228H111.954C113.551 12.1228 114.384 11.5094 114.523 10.3508C114.592 9.7374 114.245 9.32846 113.343 8.98768L110.982 8.16981C109.664 7.62457 108.969 6.67039 109.108 5.5799C109.525 2.10396 112.024 1.4224 115.911 1.4224H120.354C120.562 1.4224 120.701 1.55871 120.631 1.76318C120.423 2.44474 119.937 4.01232 117.855 4.01232ZM70.443 14.9172C68.6382 14.9172 67.0416 14.2357 66.2086 13.2133C65.5838 12.3955 65.3756 11.305 65.7227 10.1463L66.4169 7.69272C67.8052 2.92183 69.9571 1.28609 74.8163 1.28609H75.0245C76.8294 1.28609 78.426 1.96765 79.259 2.98998C79.8837 3.80785 80.092 4.89834 79.7449 6.05699L79.0507 8.51059C77.6624 13.2815 76.2046 14.9172 70.6513 14.9172H70.443ZM73.9833 4.08047C71.9702 4.14863 70.7207 5.17096 70.0265 7.62457L69.4712 9.80555C69.4018 10.1463 69.3324 10.419 69.3324 10.6916C69.4712 11.5776 70.1654 12.0547 71.4149 12.0547C73.4279 12.0547 74.6775 10.9642 75.3716 8.51059L75.9964 6.32961C76.0658 5.98883 76.1352 5.71621 76.1352 5.44359C75.9964 4.55756 75.3022 4.08047 73.9833 4.08047ZM47.3272 1.4224C49.3403 1.4224 50.7981 1.89949 51.5617 2.71736C52.0476 3.19445 52.2558 3.87601 52.1864 4.62572C52.0476 6.1933 51.284 7.07932 49.3403 7.82904L49.1321 7.89719L49.3403 8.0335C50.1733 8.51059 50.5898 9.39662 50.5204 10.419C50.1039 14.7128 46.4248 14.7128 42.5375 14.7128H39.4137C38.7196 14.7128 37.956 14.7809 37.6783 14.5083C37.2618 14.0994 37.5395 13.486 37.5395 13.486L41.0103 2.37658C41.2186 1.76318 41.5656 1.35425 42.954 1.35425L47.3272 1.4224ZM43.9952 12.191C45.3141 12.191 46.9107 12.3273 47.0496 10.6234C47.0496 10.2145 46.9802 9.87371 46.7719 9.60108C46.4248 9.2603 45.8695 9.12399 45.0365 9.12399H42.4681L41.4962 12.191H43.9952ZM43.0928 6.73854H45.6612C47.3272 6.73854 48.4379 6.53408 48.5767 5.17096C48.6462 4.83019 48.5767 4.55756 48.3685 4.3531C48.0214 3.94416 47.2578 3.94416 45.7306 3.94416H43.9258L43.0928 6.73854Z" fill="#3B5998"/>
</svg>
