<svg width="21" height="21" viewBox="0 0 21 21" fill="none" xmlns="http://www.w3.org/2000/svg">
<path d="M18.9 0H2.1C1.54375 0.00230332 1.01095 0.224292 0.61762 0.61762C0.224292 1.01095 0.00230332 1.54375 0 2.1L0 18.9C0.00230332 19.4562 0.224292 19.989 0.61762 20.3824C1.01095 20.7757 1.54375 20.9977 2.1 21H18.9C19.4562 20.9977 19.989 20.7757 20.3824 20.3824C20.7757 19.989 20.9977 19.4562 21 18.9V2.1C20.9977 1.54375 20.7757 1.01095 20.3824 0.61762C19.989 0.224292 19.4562 0.00230332 18.9 0ZM6.16438 12.6569C6.60994 12.8599 7.11792 12.8777 7.57656 12.7062C8.0352 12.5347 8.40694 12.1881 8.61 11.7425H10.0625C9.87528 12.5095 9.41349 13.1814 8.76447 13.631C8.11544 14.0806 7.32416 14.2768 6.54027 14.1825C5.75637 14.0882 5.03419 13.71 4.51029 13.1193C3.98639 12.5286 3.69709 11.7664 3.69709 10.9769C3.69709 10.1873 3.98639 9.42515 4.51029 8.83446C5.03419 8.24377 5.75637 7.86552 6.54027 7.77123C7.32416 7.67694 8.11544 7.87316 8.76447 8.32277C9.41349 8.77238 9.87528 9.44422 10.0625 10.2113H8.61C8.48636 9.93992 8.29884 9.70258 8.06348 9.51952C7.82812 9.33646 7.55193 9.21312 7.25851 9.16006C6.9651 9.107 6.66321 9.12579 6.37864 9.21483C6.09408 9.30387 5.83531 9.46051 5.62447 9.67135C5.41363 9.88219 5.257 10.141 5.16796 10.4255C5.07892 10.7101 5.06013 11.012 5.11319 11.3054C5.16625 11.5988 5.28958 11.875 5.47264 12.1104C5.65571 12.3457 5.89305 12.5332 6.16438 12.6569ZM16.0912 13.3963C15.8166 13.6327 15.5027 13.8193 15.1637 13.9475C14.6792 14.1356 14.1563 14.2036 13.6398 14.1457C13.1232 14.0878 12.6284 13.9057 12.1975 13.615V13.9475H10.8763V4.69875H12.1888V8.295C12.6573 7.97824 13.1999 7.78831 13.7638 7.74375H14C14.657 7.74273 15.2984 7.94323 15.8379 8.3182C16.3773 8.69318 16.7888 9.22459 17.0167 9.84075C17.2447 10.4569 17.2782 11.1281 17.1127 11.7639C16.9472 12.3997 16.5907 12.9694 16.0912 13.3963ZM15.8961 10.976C15.9015 11.2211 15.8578 11.4648 15.7677 11.6927C15.6776 11.9207 15.5429 12.1284 15.3715 12.3036C15.2 12.4789 14.9953 12.6181 14.7693 12.7131C14.5434 12.8082 14.3007 12.8571 14.0556 12.8571C13.8104 12.8571 13.5677 12.8082 13.3418 12.7131C13.1158 12.6181 12.9111 12.4789 12.7397 12.3036C12.5682 12.1284 12.4335 11.9207 12.3434 11.6927C12.2533 11.4648 12.2097 11.2211 12.215 10.976C12.2255 10.4948 12.424 10.0368 12.768 9.70024C13.1121 9.36363 13.5742 9.17513 14.0556 9.17513C14.5369 9.17513 14.999 9.36363 15.3431 9.70024C15.6871 10.0368 15.8856 10.4948 15.8961 10.976Z" fill="#3B5998"/>
</svg>
