<svg width="80" height="80" viewBox="0 0 80 80" fill="none" xmlns="http://www.w3.org/2000/svg">
<g clip-path="url(#clip0_2437_654)">
<path d="M55.4688 80H2.34375C1.04937 80 0 78.9506 0 77.6562V11.7188C0 10.4244 1.04937 9.375 2.34375 9.375H55.4688C56.7631 9.375 57.8125 10.4244 57.8125 11.7188V77.6562C57.8125 78.9506 56.7631 80 55.4688 80Z" fill="#E2DFF4"/>
<path d="M55.4688 9.375H28.9062V80H55.4688C56.7631 80 57.8125 78.9506 57.8125 77.6562V11.7188C57.8125 10.4244 56.7631 9.375 55.4688 9.375Z" fill="#BEBCDD"/>
<path d="M65.1562 70.625H12.0312C10.7369 70.625 9.6875 69.5756 9.6875 68.2812V2.34375C9.6875 1.04937 10.7369 0 12.0312 0H65.1562C66.4506 0 67.5 1.04937 67.5 2.34375V68.2812C67.5 69.5756 66.4506 70.625 65.1562 70.625Z" fill="#F1F1F4"/>
<path d="M65.1562 0H38.5938V70.625H65.1562C66.4506 70.625 67.5 69.5756 67.5 68.2812V2.34375C67.5 1.04937 66.4506 0 65.1562 0Z" fill="#E2DFF4"/>
<path d="M30.7812 23.75H21.4062C20.1119 23.75 19.0625 22.7006 19.0625 21.4062V12.0312C19.0625 10.7369 20.1119 9.6875 21.4062 9.6875H30.7812C32.0756 9.6875 33.125 10.7369 33.125 12.0312V21.4062C33.125 22.7006 32.0756 23.75 30.7812 23.75Z" fill="#999FED"/>
<path d="M30.7812 42.5H21.4062C20.1119 42.5 19.0625 41.4506 19.0625 40.1562V30.7812C19.0625 29.4869 20.1119 28.4375 21.4062 28.4375H30.7812C32.0756 28.4375 33.125 29.4869 33.125 30.7812V40.1562C33.125 41.4506 32.0756 42.5 30.7812 42.5Z" fill="#999FED"/>
<path d="M30.7812 61.25H21.4062C20.1119 61.25 19.0625 60.2006 19.0625 58.9062V49.5312C19.0625 48.2369 20.1119 47.1875 21.4062 47.1875H30.7812C32.0756 47.1875 33.125 48.2369 33.125 49.5312V58.9062C33.125 60.2006 32.0756 61.25 30.7812 61.25Z" fill="#999FED"/>
<path d="M49.5312 23.75H40.9375C39.6431 23.75 38.5938 22.7006 38.5938 21.4062C38.5938 20.1119 39.6431 19.0625 40.9375 19.0625H49.5312C50.8256 19.0625 51.875 20.1119 51.875 21.4062C51.875 22.7006 50.8256 23.75 49.5312 23.75Z" fill="#453D83"/>
<path d="M55.7812 14.375H40.9375C39.6431 14.375 38.5938 13.3256 38.5938 12.0312C38.5938 10.7369 39.6431 9.6875 40.9375 9.6875H55.7812C57.0756 9.6875 58.125 10.7369 58.125 12.0312C58.125 13.3256 57.0756 14.375 55.7812 14.375Z" fill="#453D83"/>
<path d="M52.6562 42.5H40.9375C39.6431 42.5 38.5938 41.4506 38.5938 40.1562C38.5938 38.8619 39.6431 37.8125 40.9375 37.8125H52.6562C53.9506 37.8125 55 38.8619 55 40.1562C55 41.4506 53.9506 42.5 52.6562 42.5Z" fill="#453D83"/>
<path d="M55.7812 33.125H40.9375C39.6431 33.125 38.5938 32.0756 38.5938 30.7812C38.5938 29.4869 39.6431 28.4375 40.9375 28.4375H55.7812C57.0756 28.4375 58.125 29.4869 58.125 30.7812C58.125 32.0756 57.0756 33.125 55.7812 33.125Z" fill="#453D83"/>
<path d="M54.0145 61.25H40.9375C39.6431 61.25 38.5938 60.2006 38.5938 58.9062C38.5938 57.6119 39.6431 56.5625 40.9375 56.5625H54.0145C55.3089 56.5625 56.3583 57.6119 56.3583 58.9062C56.3583 60.2006 55.3091 61.25 54.0145 61.25Z" fill="#453D83"/>
<path d="M52.6562 51.875H40.9375C39.6431 51.875 38.5938 50.8256 38.5938 49.5312C38.5938 48.2369 39.6431 47.1875 40.9375 47.1875H52.6562C53.9506 47.1875 55 48.2369 55 49.5312C55 50.8256 53.9506 51.875 52.6562 51.875Z" fill="#453D83"/>
<path d="M65.1562 72.188C64.8773 72.188 64.5986 72.1383 64.3333 72.0387C60.1953 70.487 56.6775 67.7469 54.1603 64.1144C51.6431 60.482 50.3125 56.2261 50.3125 51.8067V40.1567C50.3125 39.1798 50.9184 38.3051 51.8333 37.9622L64.3333 33.2747C64.8639 33.0758 65.4486 33.0758 65.9792 33.2747L78.4792 37.9622C79.3941 38.3051 80 39.1798 80 40.1567V51.8067C80 56.2261 78.6694 60.482 76.1522 64.1145C73.635 67.747 70.1172 70.4872 65.9792 72.0389C65.7139 72.1383 65.4352 72.188 65.1562 72.188Z" fill="#48CEE2"/>
<path d="M65.9792 72.0383C70.1172 70.4866 73.635 67.7464 76.1522 64.1139C78.6694 60.4816 80 56.2256 80 51.8062V40.1562C80 39.1794 79.3941 38.3047 78.4792 37.9617L65.9792 33.2742C65.7139 33.1747 65.435 33.125 65.1562 33.125V72.1875C65.4352 72.1875 65.7139 72.1378 65.9792 72.0383Z" fill="#439BC3"/>
<path d="M55 41.7803V51.8061C55 58.5226 59.0461 64.6459 65.1562 67.3153C71.2664 64.6459 75.3125 58.5228 75.3125 51.8061V41.7803L65.1562 37.9717L55 41.7803Z" fill="#97E2ED"/>
<path d="M75.3125 51.8061V41.7803L65.1562 37.9717V67.3151C71.2664 64.6457 75.3125 58.5226 75.3125 51.8061Z" fill="#48CEE2"/>
<path d="M61.8417 56.0658L58.5271 52.7512C57.6117 51.8359 57.6117 50.352 58.5271 49.4367C59.4424 48.5214 60.9263 48.5214 61.8416 49.4367L63.4991 51.0939L68.471 46.122C69.3863 45.2067 70.8702 45.2067 71.7855 46.122C72.7008 47.0373 72.7008 48.5213 71.7855 49.4366L65.1563 56.0658C64.241 56.9809 62.7571 56.9809 61.8417 56.0658Z" fill="#5F55AF"/>
<path d="M71.7853 46.122C70.87 45.2067 69.3861 45.2067 68.4708 46.122L65.1562 49.4367V56.0658L71.7853 49.4367C72.7006 48.5214 72.7006 47.0373 71.7853 46.122Z" fill="#453D83"/>
</g>
<defs>
<clipPath id="clip0_2437_654">
<rect width="80" height="80" fill="white"/>
</clipPath>
</defs>
</svg>
