<svg width="108" height="28" viewBox="0 0 108 28" fill="none" xmlns="http://www.w3.org/2000/svg">
<path fill-rule="evenodd" clip-rule="evenodd" d="M6.07592 2.40058C6.07592 3.02626 5.8261 3.65137 5.3259 4.15215C4.82512 4.65235 4.19944 4.90274 3.44942 4.90274C2.69883 4.90274 2.07372 4.65235 1.57295 4.15215C1.19765 3.65137 0.947266 3.02626 0.947266 2.40058C0.947266 1.65056 1.19708 1.02488 1.57295 0.649582C2.11248 0.240157 2.77214 0.0204041 3.44942 0.0244695C4.1267 0.0204469 4.78634 0.240196 5.3259 0.649582C5.8261 1.02488 6.07592 1.65056 6.07592 2.40058ZM1.19708 6.27901H5.8261V20.9155H1.19708V6.27901ZM16.5836 4.02724C20.8373 4.02724 22.9636 6.1541 22.9636 10.5322C22.9636 12.9088 22.3385 14.6604 21.0871 15.9112C19.9613 17.0377 18.3352 17.6622 16.2083 17.5379H14.5822V4.27763L16.5836 4.02724ZM16.2083 0.524672L9.95378 1.02488V20.9155L15.2073 21.1653C19.3356 21.1653 22.3379 20.2898 24.4642 18.5388C26.8409 16.6629 27.9674 14.0353 27.9674 10.4078C27.9674 6.90526 26.8415 4.2782 24.4642 2.65211C22.5883 1.27526 19.8364 0.524672 16.2083 0.524672ZM32.2211 8.40587C31.0952 9.90705 30.4701 11.6586 30.4701 13.7849C30.4701 16.1622 31.2201 17.9132 32.597 19.2889C33.9732 20.6646 35.8497 21.2908 38.3513 21.2908L43.6048 20.4153L42.9797 17.2875L38.9764 17.9137C37.8505 17.9137 36.975 17.6633 36.0989 17.1631C35.3484 16.6629 34.9731 15.9123 34.8482 15.0363H44.3554L44.4803 13.2847C44.4803 11.2833 43.9801 9.65667 42.9792 8.28096C41.8533 6.6543 40.1017 5.90428 37.8505 5.90428C35.4733 5.90371 33.5968 6.77921 32.2211 8.40587ZM35.4733 10.032C36.0984 9.40628 36.7241 9.03156 37.6001 9.03156C39.3517 9.03156 40.2266 10.032 40.2266 11.9084H34.7227C34.8476 11.1578 35.098 10.5322 35.4733 10.032ZM53.237 5.90371C54.8637 5.90371 56.2394 6.15353 57.3653 6.77978L56.4898 9.90706L53.3619 9.03156C52.2361 9.03156 51.611 9.40685 51.611 10.2823C51.611 10.908 52.3615 11.4082 53.9876 12.0333C56.6147 12.9088 57.9904 14.41 57.9904 16.5375C57.9904 17.9132 57.4902 19.0385 56.3637 19.9151C55.2384 20.7895 53.7372 21.2908 51.611 21.2908C49.7345 21.2908 48.1078 20.9155 46.857 20.1644L47.7331 16.9116C48.859 17.7871 50.2347 18.1624 51.611 18.1624C52.9867 18.1624 53.6123 17.6622 53.6123 16.7867C53.6123 16.1616 52.8623 15.6603 51.4855 15.16C48.6086 14.2845 47.2323 12.7834 47.2323 10.782C47.2323 9.40571 47.7325 8.15492 48.8584 7.27942C49.9843 6.40392 51.3606 5.90371 53.237 5.90371ZM65.2453 0.649582C65.7455 1.02488 65.9959 1.65056 65.9959 2.40058C65.9959 3.02626 65.7455 3.65137 65.2453 4.15215C64.8712 4.65235 64.2449 4.90274 63.4943 4.90274H63.3694C62.6188 4.90274 61.9937 4.65235 61.4935 4.15215C61.1182 3.65137 60.8673 3.02626 60.8673 2.40058C60.8673 1.65056 61.1177 1.02488 61.4935 0.649582C61.9937 0.274286 62.6188 0.0244695 63.4943 0.0244695C64.2449 0.0244695 64.8712 0.274286 65.2453 0.649582ZM61.1182 6.27901H65.7455V20.9155H61.1182V6.27901ZM75.6287 5.90371C73.7528 5.90371 72.251 6.65431 70.8753 8.03058C69.6245 9.53176 68.9983 11.4082 68.9983 13.66C68.9983 15.7869 69.6245 17.5384 70.7504 18.9141C71.8757 20.1649 73.2514 20.79 75.1285 20.79C76.8795 20.79 78.2552 20.1649 79.1312 18.9141H79.2562V19.9157C79.2562 22.5422 78.0065 23.7935 75.3783 23.7935C73.8777 23.7935 72.5008 23.4183 71.1252 22.6671L70.1247 26.1697C71.5004 26.9202 73.3775 27.2961 75.5043 27.2961C78.1308 27.2961 80.1328 26.671 81.5085 25.4191C83.0091 24.0434 83.7597 21.9165 83.7597 18.9147L83.8857 6.28015H79.8818L79.7569 8.03172H79.6309C78.756 6.65431 77.5046 5.90371 75.6287 5.90371ZM73.6273 13.534C73.6273 12.1583 73.8777 11.1573 74.5028 10.5322C75.0041 9.78157 75.7536 9.40628 76.6297 9.40628C77.8805 9.40628 78.6316 10.032 79.0069 11.4077L79.1318 12.1583V14.4095L79.0069 15.5359C78.6316 16.9116 77.7561 17.5379 76.6297 17.5379C75.7542 17.5379 75.0041 17.1626 74.3785 16.2871C73.8777 15.6608 73.6273 14.6604 73.6273 13.534ZM87.1374 6.27901H91.1413L91.2662 8.28096H91.3911C92.3926 6.6543 93.8932 5.90428 96.0195 5.90428C97.6462 5.90428 98.897 6.40449 99.7725 7.53095C100.774 8.65683 101.274 10.1574 101.274 12.2843V20.9155H96.6458V12.7839C96.6458 10.6571 95.8952 9.65667 94.3934 9.65667C93.2681 9.65667 92.3926 10.1569 92.0173 11.2833L91.8924 12.5336V20.9155H87.264L87.1374 6.27901ZM106.903 3.15174L106.027 5.40351L105.152 3.15174H104.401V6.27901H104.776V3.65194L105.903 6.27901H106.152L107.154 3.65194V6.27901H107.654V3.15174H106.903ZM101.274 3.15174V3.65194H102.274V6.27901H102.774V3.65194H103.776V3.15174H101.274Z" fill="#3B5998"/>
</svg>
