<svg width="21" height="21" viewBox="0 0 21 21" fill="none" xmlns="http://www.w3.org/2000/svg">
<path d="M10.5 5.46C9.50318 5.46 8.52875 5.75559 7.69993 6.30939C6.8711 6.8632 6.22511 7.65034 5.84365 8.57127C5.46218 9.49222 5.36237 10.5056 5.55684 11.4833C5.75131 12.4609 6.23133 13.359 6.93618 14.0638C7.64104 14.7687 8.53908 15.2487 9.51674 15.4432C10.4944 15.6376 11.5078 15.5378 12.4287 15.1564C13.3497 14.7749 14.1368 14.1289 14.6906 13.3001C15.2444 12.4713 15.54 11.4968 15.54 10.5C15.54 9.16331 15.009 7.88137 14.0638 6.93618C13.1186 5.991 11.8367 5.46 10.5 5.46ZM10.5 13.86C9.83545 13.86 9.18583 13.6629 8.63328 13.2937C8.08074 12.9245 7.65007 12.3998 7.39576 11.7858C7.14145 11.1719 7.07491 10.4963 7.20456 9.8445C7.33421 9.19272 7.65422 8.59403 8.12412 8.12412C8.59403 7.65422 9.19272 7.33421 9.8445 7.20456C10.4963 7.07491 11.1719 7.14145 11.7858 7.39576C12.3998 7.65007 12.9245 8.08074 13.2937 8.63328C13.6629 9.18583 13.86 9.83545 13.86 10.5C13.8572 11.3903 13.5023 12.2433 12.8728 12.8728C12.2433 13.5023 11.3903 13.8572 10.5 13.86ZM15.12 0H5.88C4.32053 0 2.82493 0.619498 1.72221 1.72221C0.619498 2.82493 0 4.32053 0 5.88V15.12C0 16.6795 0.619498 18.1751 1.72221 19.2778C2.82493 20.3805 4.32053 21 5.88 21H15.12C16.6795 21 18.1751 20.3805 19.2778 19.2778C20.3805 18.1751 21 16.6795 21 15.12V5.88C21 4.32053 20.3805 2.82493 19.2778 1.72221C18.1751 0.619498 16.6795 0 15.12 0ZM19.32 15.12C19.32 15.6716 19.2114 16.2177 19.0003 16.7273C18.7892 17.2368 18.4799 17.6998 18.0898 18.0898C17.6998 18.4799 17.2368 18.7892 16.7273 19.0003C16.2177 19.2114 15.6716 19.32 15.12 19.32H5.88C5.32845 19.32 4.7823 19.2114 4.27273 19.0003C3.76316 18.7892 3.30016 18.4799 2.91015 18.0898C2.52015 17.6998 2.21078 17.2368 1.99971 16.7273C1.78864 16.2177 1.68 15.6716 1.68 15.12V5.88C1.68 4.76609 2.1225 3.6978 2.91015 2.91015C3.6978 2.1225 4.76609 1.68 5.88 1.68H15.12C15.6716 1.68 16.2177 1.78864 16.7273 1.99971C17.2368 2.21078 17.6998 2.52015 18.0898 2.91015C18.4799 3.30016 18.7892 3.76316 19.0003 4.27273C19.2114 4.7823 19.32 5.32845 19.32 5.88V15.12ZM17.22 5.04C17.22 5.2892 17.1461 5.53281 17.0077 5.74002C16.8692 5.94722 16.6724 6.10872 16.4422 6.20409C16.2119 6.29945 15.9586 6.32441 15.7142 6.27579C15.4698 6.22717 15.2453 6.10717 15.069 5.93095C14.8928 5.75474 14.7728 5.53023 14.7242 5.28581C14.6756 5.0414 14.7005 4.78805 14.7959 4.55782C14.8913 4.32758 15.0528 4.1308 15.26 3.99235C15.4672 3.8539 15.7108 3.78 15.96 3.78C16.2942 3.78 16.6147 3.91275 16.851 4.14904C17.0872 4.38534 17.22 4.70583 17.22 5.04Z" fill="#3B5998"/>
</svg>
