<svg width="37" height="42" viewBox="0 0 37 42" fill="none" xmlns="http://www.w3.org/2000/svg">
<path fill-rule="evenodd" clip-rule="evenodd" d="M18.7809 0.491211C10.0071 0.491211 2.89396 7.59913 2.89396 16.3674C2.89396 23.5599 7.68349 29.6276 14.2458 31.5792C14.1551 30.1442 13.9894 26.3312 14.5871 23.7029C15.3358 20.4094 16.9835 15.5445 16.9835 15.5445L13.9134 17.3405L14.0627 15.0953L11.2918 15.8438C11.2918 15.8438 12.64 12.5505 14.3624 11.9517C14.3624 11.9517 11.5168 11.2032 10.2434 11.877C10.2434 11.877 12.1158 8.95825 15.4108 9.40695L14.9618 7.46079L16.4598 7.53623L17.6579 8.35966L17.9572 6.33879L19.9793 8.73366C19.9793 8.73366 20.6535 7.68612 24.1738 7.76058C22.9751 8.9585 23.0501 9.1826 23.0501 9.1826L26.1957 9.63179L24.0241 11.1285C24.0241 11.1285 27.0199 12.4007 28.1431 15.2454C24.4735 14.4967 24.9225 14.9459 24.9225 14.9459C24.9225 14.9459 25.372 15.2454 25.297 16.5928C23.5739 15.5447 23.1999 16.0684 23.1999 16.0684L23.7243 19.4366L23.5001 19.7356C23.5001 19.7356 21.777 16.4429 19.5303 15.6941C18.9982 16.366 18.7595 16.6299 18.669 16.6962C18.219 18.048 16.5896 23.3982 17.4332 27.7436C19.6803 24.9006 19.9796 24.6755 19.9796 24.6755L19.4556 28.0442L21.2532 27.4448C21.2532 27.4448 20.953 27.8186 20.8787 28.7177C20.8133 29.5006 20.7482 31.5893 20.7322 32.1137C28.5842 31.1504 34.6688 24.475 34.6688 16.3677C34.668 7.59913 27.5552 0.491211 18.7809 0.491211ZM1.11304 33.058V41.3661H0.216797V33.058H1.11304ZM4.13247 38.7299C4.13247 39.2147 4.27803 39.6533 4.56964 40.0455C4.86101 40.4377 5.33606 40.6335 5.99379 40.6335C6.47228 40.6335 6.82487 40.5424 7.05354 40.3591C7.28148 40.1767 7.43638 39.9733 7.519 39.7497C7.55588 39.6379 7.58194 39.528 7.59719 39.4199C7.61119 39.3253 7.61875 39.2299 7.61981 39.1344C7.61981 38.7395 7.5276 38.4451 7.34467 38.2512C7.16124 38.0573 6.95765 37.9114 6.73365 37.8146C6.66011 37.7851 6.58519 37.7592 6.50916 37.7369C6.43458 37.714 6.35983 37.6916 6.28492 37.6698C6.22517 37.6548 6.16566 37.6396 6.10542 37.6251L5.92642 37.5799C5.9056 37.5732 5.88502 37.5658 5.8647 37.5578C5.84133 37.5496 5.81668 37.5457 5.79192 37.5462C5.20131 37.3976 4.66332 37.1867 4.17722 36.9137C3.6916 36.6424 3.44867 36.0699 3.44867 35.1976C3.44867 34.6014 3.62939 34.0539 3.99256 33.5546C4.3545 33.056 5.00658 32.8059 5.9483 32.8059C6.74791 32.8059 7.32868 33.0275 7.69111 33.4711C8.05354 33.9141 8.26869 34.4041 8.33606 34.9403C8.34319 34.9855 8.3486 35.0319 8.35278 35.0803C8.35623 35.1283 8.35795 35.1749 8.35795 35.2194H7.50646C7.49908 35.1528 7.49121 35.0855 7.48408 35.0194C7.47557 34.9474 7.4606 34.8762 7.43933 34.8068C7.36434 34.5461 7.21509 34.3048 6.9906 34.0817C6.7666 33.8581 6.41155 33.7463 5.92568 33.7463C5.41007 33.7463 5.01936 33.8827 4.7543 34.1542C4.48899 34.4255 4.35622 34.7545 4.35622 35.1415C4.35622 35.619 4.51285 35.9397 4.82708 36.1038C5.14107 36.2679 5.48801 36.3947 5.86938 36.4839C5.87675 36.4916 5.88413 36.4955 5.892 36.4955H5.91437C5.93213 36.5036 5.95091 36.5092 5.97019 36.5122C5.98972 36.5148 6.00872 36.5204 6.02649 36.5289C6.1605 36.5586 6.29942 36.5923 6.44154 36.6297C6.58317 36.6665 6.7248 36.7078 6.86741 36.7525C7.29352 36.8936 7.68398 37.1307 8.03879 37.4634C8.39434 37.7951 8.57113 38.3451 8.57113 39.113C8.57113 39.2469 8.56031 39.4005 8.53744 39.5718C8.51356 39.7505 8.4723 39.9266 8.41425 40.0974C8.28738 40.4704 8.04051 40.8078 7.6744 41.11C7.30828 41.412 6.73267 41.5626 5.94806 41.5626C5.80594 41.5626 5.62644 41.5521 5.40982 41.529C5.17899 41.5035 4.95263 41.4472 4.73684 41.3614C4.37073 41.2275 4.03436 40.964 3.72774 40.5719C3.42113 40.1802 3.25295 39.5663 3.22369 38.7304H4.13247V38.7299ZM14.9461 41.3661H10.699V33.058H11.5952V40.4254H14.9461V41.3661ZM17.5775 38.2778L18.7317 34.1901L19.8856 38.2778H17.5775ZM17.3309 39.2189H20.1327L20.7605 41.3661H21.7128L19.2139 33.058H18.2611L15.7624 41.3661H16.7037L17.3309 39.2189ZM24.2704 41.3661H23.3742V33.058H24.3577L27.8679 39.6428V33.058H28.7529V41.3661H27.7799L24.2704 34.7842V41.3661ZM32.1588 33.9982H33.6351C33.7244 33.9982 33.8139 34.0021 33.9031 34.0097C33.9929 34.0168 34.0826 34.0323 34.1716 34.0544C34.5967 34.1591 34.9879 34.4375 35.3457 34.8887C35.7035 35.3403 35.8827 36.1149 35.8827 37.212C35.8827 38.2271 35.6944 39.0167 35.3174 39.5801C34.9415 40.1436 34.2982 40.4257 33.3887 40.4257H32.1588V33.9982ZM31.2626 33.058V41.3663H33.355C33.5495 41.3663 33.7691 41.3562 34.015 41.338C34.2701 41.3175 34.5219 41.267 34.7652 41.1874C35.2872 41.0157 35.7607 40.6446 36.1861 40.073C36.6115 39.502 36.8239 38.5417 36.8239 37.1907V36.9943C36.8239 36.9304 36.82 36.8695 36.8129 36.809C36.775 35.8689 36.5382 35.0088 36.102 34.2284C35.6651 33.4485 34.8616 33.0583 33.6907 33.0583H31.2626V33.058ZM30.807 29.2559V29.1057H31.8534V29.2559H31.4197V30.4385H31.24V29.2559H30.807ZM32.3961 29.3197H32.3927L32.3961 29.3696V30.4385H32.2164V29.1057H32.4839L32.9011 30.2029L33.3182 29.1057H33.5859V30.4385H33.4059V29.3696L33.4116 29.3197H33.4059L32.9727 30.4385H32.8296L32.3961 29.3197Z" fill="#3B5998"/>
</svg>
