<svg width="23" height="23" viewBox="0 0 23 23" fill="none" xmlns="http://www.w3.org/2000/svg">
<path d="M8.54688 6.4375C8.54688 6.68782 8.47265 6.93251 8.33358 7.14064C8.19451 7.34877 7.99685 7.51099 7.76558 7.60679C7.53432 7.70258 7.27985 7.72764 7.03434 7.67881C6.78883 7.62997 6.56332 7.50943 6.38632 7.33243C6.20932 7.15543 6.08878 6.92992 6.03994 6.68441C5.99111 6.4389 6.01617 6.18443 6.11196 5.95317C6.20776 5.7219 6.36998 5.52424 6.57811 5.38517C6.78624 5.2461 7.03093 5.17188 7.28125 5.17188C7.61691 5.17188 7.93883 5.30522 8.17618 5.54257C8.41353 5.77992 8.54688 6.10184 8.54688 6.4375ZM22.0469 2.64062V20.3594C22.0469 20.8069 21.8691 21.2361 21.5526 21.5526C21.2361 21.8691 20.8069 22.0469 20.3594 22.0469H2.64062C2.19307 22.0469 1.76385 21.8691 1.44738 21.5526C1.13091 21.2361 0.953125 20.8069 0.953125 20.3594V2.64062C0.953125 2.19307 1.13091 1.76385 1.44738 1.44738C1.76385 1.13091 2.19307 0.953125 2.64062 0.953125H20.3594C20.8069 0.953125 21.2361 1.13091 21.5526 1.44738C21.8691 1.76385 22.0469 2.19307 22.0469 2.64062ZM20.3594 20.3594V2.64062H2.64062V20.3594H20.3594ZM7.28125 8.96875C7.05747 8.96875 6.84286 9.05764 6.68463 9.21588C6.52639 9.37411 6.4375 9.58872 6.4375 9.8125V16.5625C6.4375 16.7863 6.52639 17.0009 6.68463 17.1591C6.84286 17.3174 7.05747 17.4062 7.28125 17.4062C7.50503 17.4062 7.71964 17.3174 7.87787 17.1591C8.03611 17.0009 8.125 16.7863 8.125 16.5625V9.8125C8.125 9.58872 8.03611 9.37411 7.87787 9.21588C7.71964 9.05764 7.50503 8.96875 7.28125 8.96875ZM13.6094 8.96875C12.8498 8.96871 12.1077 9.19649 11.4789 9.62266C11.4328 9.4202 11.3136 9.24186 11.1442 9.12178C10.9748 9.00169 10.7671 8.9483 10.5607 8.9718C10.3544 8.9953 10.164 9.09406 10.026 9.24917C9.88792 9.40428 9.81192 9.60485 9.8125 9.8125V16.5625C9.8125 16.7863 9.90139 17.0009 10.0596 17.1591C10.2179 17.3174 10.4325 17.4062 10.6562 17.4062C10.88 17.4062 11.0946 17.3174 11.2529 17.1591C11.4111 17.0009 11.5 16.7863 11.5 16.5625V12.7656C11.5 12.2062 11.7222 11.6697 12.1178 11.2741C12.5134 10.8785 13.0499 10.6562 13.6094 10.6562C14.1688 10.6562 14.7053 10.8785 15.1009 11.2741C15.4965 11.6697 15.7188 12.2062 15.7188 12.7656V16.5625C15.7188 16.7863 15.8076 17.0009 15.9659 17.1591C16.1241 17.3174 16.3387 17.4062 16.5625 17.4062C16.7863 17.4062 17.0009 17.3174 17.1591 17.1591C17.3174 17.0009 17.4062 16.7863 17.4062 16.5625V12.7656C17.4062 11.7586 17.0062 10.7929 16.2942 10.0808C15.5821 9.36878 14.6164 8.96875 13.6094 8.96875Z" fill="#3B5998"/>
</svg>
