<svg width="80" height="80" viewBox="0 0 80 80" fill="none" xmlns="http://www.w3.org/2000/svg">
<g clip-path="url(#clip0_2437_646)">
<path d="M47.5 0H9.16667C4.1 0 0 4.1 0 9.16667V60.8333C0 65.9 4.1 70 9.16667 70H36.3333C33.5333 65.5667 31.6667 60.3333 31.6667 54.3333V40.9667C31.6667 40.8 31.6667 40.6333 31.7 40.4667C31.8333 37.6333 33.1667 35.0333 35.2667 33.3333C36.2 32.5 37.2667 31.9 38.4333 31.5L46.4333 28.7667L55.9333 25.5333C56.1667 25.4333 56.4 25.3667 56.6667 25.3333V9.16667C56.6667 4.1 52.5667 0 47.5 0Z" fill="#ECEFF1"/>
<path d="M46.4333 28.767L38.4333 31.5003C37.2667 31.9003 36.2 32.5003 35.2667 33.3337H13.3333C11.5 33.3337 10 31.8337 10 30.0003C10 28.167 11.5 26.667 13.3333 26.667H43.3333C44.7333 26.667 45.9333 27.5337 46.4333 28.767Z" fill="#90A4AE"/>
<path d="M31.7 40.4667C31.6667 40.6333 31.6667 40.8 31.6667 40.9667V46.2C31.1667 46.5 30.6 46.6667 30 46.6667H13.3333C11.5 46.6667 10 45.1667 10 43.3333C10 41.5 11.5 40 13.3333 40H30C30.6333 40 31.2 40.1667 31.7 40.4667Z" fill="#90A4AE"/>
<path d="M26.6667 20.0002H13.3333C11.4933 20.0002 10 18.5068 10 16.6668C10 14.8268 11.4933 13.3335 13.3333 13.3335H26.6667C28.5067 13.3335 30 14.8268 30 16.6668C30 18.5068 28.5067 20.0002 26.6667 20.0002Z" fill="#90A4AE"/>
<path d="M59.1666 80.0001C58.7233 80.0001 58.2766 79.9134 57.8599 79.7334C57.0633 79.3934 38.3333 71.2368 38.3333 54.3434V40.9501C38.3333 39.5234 39.2399 38.2534 40.5933 37.7934L58.0933 31.8401C58.7899 31.6034 59.5466 31.6034 60.2433 31.8401L77.7433 37.7934C79.0933 38.2568 79.9999 39.5234 79.9999 40.9534V54.3468C79.9999 71.2368 61.2699 79.3968 60.4733 79.7368C60.0566 79.9134 59.6099 80.0001 59.1666 80.0001Z" fill="#3B5998"/>
<path d="M58.3334 64.9998C57.45 64.9998 56.6034 64.6531 55.9767 64.0231L49.31 57.3565C48.0067 56.0531 48.0067 53.9465 49.31 52.6431C50.6134 51.3398 52.72 51.3398 54.0234 52.6431L57.9734 56.5931L65.6667 46.3331C66.77 44.8631 68.86 44.5598 70.33 45.6665C71.8034 46.7698 72.1034 48.8598 70.9967 50.3331L60.9967 63.6665C60.4167 64.4398 59.5334 64.9231 58.5667 64.9898C58.49 64.9965 58.41 64.9998 58.3334 64.9998Z" fill="white"/>
</g>
<defs>
<clipPath id="clip0_2437_646">
<rect width="80" height="80" fill="white"/>
</clipPath>
</defs>
</svg>
