<svg width="119" height="28" viewBox="0 0 119 28" fill="none" xmlns="http://www.w3.org/2000/svg">
<g clip-path="url(#clip0_8745_55)">
<path fill-rule="evenodd" clip-rule="evenodd" d="M16.7766 21.2322H11.6249V13.8439C11.6249 11.8785 11.1497 10.7935 9.59156 10.7942C8.10004 10.7942 7.21899 11.8785 7.21899 13.6406V21.2322H2V6.86214H7.21965V8.35366C8.16868 7.06541 9.65954 6.45561 11.3543 6.45561C15.2184 6.45561 16.7772 9.16674 16.7772 12.5556V21.2322H16.7766V21.2322ZM34.2643 13.9805C34.2643 18.2498 30.6728 21.6394 26.5374 21.6394C22.2675 21.6394 18.7426 18.3864 18.7426 13.9792C18.7426 9.70922 22.3348 6.45561 26.4695 6.45561C30.7394 6.45627 34.2643 9.57394 34.2643 13.9805ZM29.2486 13.9799C29.2492 12.3537 28.3675 10.523 26.4701 10.523C24.7074 10.523 23.827 12.3537 23.827 13.9799C23.827 15.6746 24.708 17.5047 26.5381 17.5047C28.3675 17.5047 29.2486 15.6746 29.2486 13.9799ZM52.4298 20.9616C52.4298 25.3002 49.4474 27.6041 44.6349 27.6041C41.6526 27.6041 38.9414 26.7231 37.6532 25.9773L39.348 22.5891C40.6362 23.2662 42.3304 23.7414 44.2957 23.7414C46.6003 23.7414 47.2781 22.5218 47.2781 21.0976V19.606C46.533 20.5551 44.9735 21.4375 42.9402 21.4375C38.8728 21.4361 36.1617 17.9799 36.1617 13.9805C36.1617 9.98181 38.8728 6.45694 42.9402 6.45694C44.6343 6.45694 46.465 7.2027 47.2781 8.28768V6.86348H52.4298V20.9616V20.9616ZM47.2788 14.0472C47.2788 12.0825 46.0585 10.6589 44.2964 10.6589C42.6023 10.6589 41.314 12.0825 41.314 14.0472C41.314 16.0818 42.6023 17.3688 44.2971 17.3688C46.0585 17.3688 47.2788 16.0139 47.2788 14.0472V14.0472ZM69.8502 21.2322H64.6985V19.742C63.7495 21.0296 62.2593 21.6401 60.5638 21.6401C56.7004 21.6401 55.1416 18.9289 55.1416 15.4714V6.86281H60.2926V14.2518C60.2926 16.2171 60.7671 17.3015 62.3266 17.3015C63.8168 17.3015 64.6985 16.2171 64.6985 14.3871V6.86281H69.8502V21.2322V21.2322ZM86.1849 18.5211C84.4235 20.691 82.6614 21.6401 79.8823 21.6401C75.3411 21.6401 71.9515 18.3858 71.9515 14.0472C71.9515 9.9125 75.2731 6.45627 79.8823 6.45561C82.3228 6.45561 84.1516 7.26934 85.7111 9.09942L82.7287 11.8785C81.9149 10.9975 80.9659 10.523 79.8823 10.523C78.0522 10.523 76.7633 12.0145 76.7633 14.0472C76.7633 15.8099 77.9842 17.5734 79.8823 17.5734C81.2372 17.5734 81.9156 17.0309 82.7287 16.0818L86.1849 18.5211V18.5211ZM102.792 21.2322H97.5732V13.8439C97.5732 11.8785 97.0981 10.7942 95.5399 10.7942C94.0484 10.7942 93.1667 11.8779 93.1667 13.6406V21.2322H88.0157V-1L93.1667 -0.931352V8.35433C94.1157 7.06608 95.6072 6.45627 97.302 6.45627C101.165 6.45561 102.792 9.1674 102.792 12.557L102.792 21.2322ZM105.706 21.2322L105.707 6.86214H110.859L110.858 21.2315H105.706V21.2322V21.2322Z" fill="#3B5998"/>
<path fill-rule="evenodd" clip-rule="evenodd" d="M119.126 9.84521C119.127 10.255 119.047 10.661 118.891 11.0398C118.735 11.4187 118.505 11.7629 118.216 12.0527C117.926 12.3425 117.582 12.5722 117.203 12.7285C116.824 12.8848 116.418 12.9647 116.008 12.9635C114.314 12.9635 112.891 11.54 112.891 9.84588C112.889 9.43608 112.969 9.03009 113.125 8.65124C113.282 8.2724 113.511 7.92818 113.801 7.63838C114.091 7.34858 114.435 7.11892 114.814 6.9626C115.193 6.80629 115.599 6.72641 116.008 6.72755C117.771 6.72755 119.126 8.08311 119.126 9.84521Z" fill="#3B5998"/>
</g>
<defs>
<clipPath id="clip0_8745_55">
<rect width="119" height="28" fill="white"/>
</clipPath>
</defs>
</svg>
