<svg width="125" height="29" viewBox="0 0 125 29" fill="none" xmlns="http://www.w3.org/2000/svg">
<g clip-path="url(#clip0_8749_45)">
<path d="M8.29894 10.1932C8.32681 20.2654 8.32681 20.4049 8.53048 21.3154C9.38239 25.218 11.1513 27.4202 14.022 28.1635C14.7258 28.3493 15.1054 28.3679 17.9761 28.4051L21.1431 28.4422V28.2285C21.1339 28.1078 20.9579 26.8255 20.7449 25.3666L20.3467 22.7185L17.337 22.6628C14.1237 22.6071 13.9015 22.5791 13.0588 22.0773C12.1328 21.5383 11.2067 20.2003 10.827 18.8625C10.4288 17.4499 10.4011 16.8926 10.4011 8.24193V0H8.26172L8.29894 10.1932Z" fill="#3B5998"/>
<path d="M10.8812 8.70639L10.9091 17.4222L11.1591 18.3327C11.2981 18.8345 11.5203 19.4849 11.6499 19.773C11.8999 20.312 12.5667 21.2784 12.7055 21.2784C12.7427 21.2784 12.8353 20.9159 12.9002 20.4606C13.0019 19.8287 13.0389 17.5616 13.0574 9.82147L13.0945 0H10.8535L10.8812 8.70639Z" fill="#3B5998"/>
<path d="M30.82 7.33201C27.4215 7.66661 24.7175 9.19962 23.3191 11.5878C22.5227 12.9534 22.2079 14.3566 22.282 16.2056C22.3652 18.38 22.9579 19.8667 24.3284 21.3348C26.5879 23.7879 30.6533 24.8564 34.5983 24.0574C37.7746 23.4161 40.275 21.4742 41.3212 18.8447C42.0899 16.9212 42.0528 14.2824 41.2286 12.4054C39.9045 9.36702 36.7003 7.48064 32.5795 7.30424C32.0239 7.28566 31.2275 7.29485 30.82 7.33201V7.33201ZM33.274 11.0674C35.6447 11.6156 37.2745 14.0687 36.9042 16.5124C36.6171 18.3986 35.2836 19.9318 33.4593 20.48C32.7832 20.6843 31.3571 20.6843 30.681 20.48C28.5511 19.8481 27.1621 17.9897 27.1621 15.7691C27.1621 13.6504 28.6716 11.6527 30.6904 11.1138C31.2737 10.9558 32.6813 10.928 33.274 11.0674V11.0674ZM43.7383 15.5645V23.695L46.2664 23.6764L48.7851 23.6485L48.8129 15.5368L48.8315 7.43429H43.7383V15.5645ZM51.8781 11.3461C50.4335 13.4926 49.2573 15.2951 49.276 15.3414C49.2852 15.388 50.5355 17.2835 52.0448 19.5601L54.7859 23.695H57.8325C59.4995 23.695 60.87 23.6764 60.87 23.6485C60.87 23.6299 59.4995 21.818 57.8325 19.6344C56.1566 17.4509 54.7303 15.5645 54.6656 15.4625C54.5543 15.2767 54.7397 14.9884 57.3139 11.4761C58.8328 9.38559 60.1199 7.62945 60.1569 7.55514C60.2218 7.45286 59.7402 7.43429 57.3696 7.43429H54.5081L51.8781 11.3461ZM62.2774 13.1674C62.3146 18.6959 62.3238 18.9376 62.5092 19.6252C63.2221 22.171 64.8982 23.5184 68.0005 24.0294C69.2044 24.2338 71.3066 24.2895 72.6214 24.1688C76.3533 23.7973 78.3814 22.4313 79.1778 19.7366C79.3259 19.2442 79.3444 18.5938 79.3723 13.3066L79.4 7.43429H74.0198V18.4729L73.7142 19.0582C73.1678 20.127 72.177 20.6751 70.825 20.6658C69.4915 20.6472 68.371 19.9876 67.8987 18.9376L67.6764 18.445L67.6578 12.9628L67.6302 7.48064L64.9444 7.45286L62.2497 7.43429L62.2774 13.1674ZM82.1689 15.5645V23.695H86.2435L86.2527 17.9525C86.262 14.0407 86.2897 12.2938 86.3546 12.4518C86.4101 12.582 87.2065 15.1466 88.1327 18.1663L89.8086 23.6485L92.0034 23.6764L94.189 23.695L94.2907 23.3976C94.4297 22.9329 95.6521 18.9839 96.7077 15.5645C97.2355 13.8733 97.6894 12.4332 97.7356 12.3589C97.7818 12.2846 97.819 14.8028 97.819 17.9525V23.695H101.894V7.43409L98.3098 7.45286L94.7168 7.48064L93.3833 12.2009C92.6516 14.7934 92.0312 16.9026 92.0127 16.884C91.9849 16.8468 89.2993 7.53656 89.2993 7.46206C89.2993 7.44348 87.6974 7.43429 85.7342 7.43429H82.1689V15.5645ZM110.719 7.54576C110.617 7.69438 103.19 23.5462 103.19 23.6299C103.19 23.667 104.412 23.695 105.913 23.695H108.635L109.515 21.4464C110.006 20.2013 110.45 19.0768 110.496 18.9282L110.598 18.6773L113.904 18.6959L117.201 18.7238L117.655 19.8853C117.905 20.5263 118.34 21.6416 118.627 22.3756L119.146 23.695H121.859C123.359 23.695 124.582 23.667 124.582 23.6393C124.582 23.6019 124.146 22.6542 123.609 21.5206C123.081 20.3963 121.377 16.7725 119.822 13.474L117.007 7.48064L113.904 7.45286C111.496 7.43429 110.793 7.46206 110.719 7.54576V7.54576ZM114.941 12.8793C115.451 14.2079 115.877 15.323 115.877 15.3602C115.877 15.3973 114.978 15.4253 113.876 15.4253C112.774 15.4253 111.895 15.388 111.913 15.3416C112.83 12.935 113.895 10.3427 113.941 10.389C113.969 10.4262 114.423 11.5413 114.942 12.8793H114.941Z" fill="#3B5998"/>
<path d="M7.57632 22.2165C6.73358 22.616 6.24282 22.6717 3.41852 22.6717H0.807053L0.390356 25.4778C0.158815 27.0296 -0.0171783 28.3211 0.00133727 28.3585C0.0477217 28.442 5.502 28.4234 6.32623 28.3305C7.69677 28.1819 9.39143 27.42 10.1044 26.6487L10.3174 26.4071L9.93773 25.9145C9.43762 25.2549 8.70616 23.7403 8.44694 22.8112C8.33565 22.4023 8.2154 22.0399 8.18753 22.0121C8.15966 21.975 7.88212 22.0677 7.57632 22.2165Z" fill="#3B5998"/>
</g>
<defs>
<clipPath id="clip0_8749_45">
<rect width="124.58" height="28.44" fill="white"/>
</clipPath>
</defs>
</svg>
