<svg width="151" height="28" viewBox="0 0 151 28" fill="none" xmlns="http://www.w3.org/2000/svg">
<path fill-rule="evenodd" clip-rule="evenodd" d="M29.8006 4.18019L29.3211 6.73827H29.4013C30.0412 5.29882 31.3996 3.94043 33.1582 3.94043C33.7981 3.94043 34.4372 4.01978 34.9969 4.18019L34.037 8.01731C33.4781 7.53777 32.8382 7.45757 32.0387 7.45757C30.2801 7.45757 29.1615 9.05658 28.8415 10.8945L27.6427 16.5687H23.4062L25.3252 7.45672C25.565 6.33724 25.7246 5.29797 25.8048 4.17934H29.8006V4.18019Z" fill="#3B5998"/>
<path fill-rule="evenodd" clip-rule="evenodd" d="M39.8713 16.8106C35.3149 16.8106 33.477 14.3345 33.477 11.2158C33.477 6.81979 36.594 3.94174 41.3902 3.94174C45.6266 3.94174 47.8647 6.34026 47.8647 9.45723C47.8647 14.5725 44.508 16.8106 39.8713 16.8106ZM41.2297 6.89915C39.1512 6.89915 37.8722 9.13725 37.8722 11.1356C37.8722 12.7346 38.751 13.8541 40.1905 13.8541C42.1888 13.8541 43.4678 12.1749 43.4678 9.37702C43.4687 8.09798 42.8296 6.89915 41.2297 6.89915ZM51.2223 0.0244141H58.5766C60.336 0.0244141 63.2925 0.663507 63.2925 3.78133C63.2925 6.02029 61.534 7.6978 58.8965 8.01777C60.8147 8.33774 62.1739 9.37617 62.1739 11.2149C62.1739 14.7321 59.1363 16.4113 55.2992 16.4915L47.7854 16.57L51.2223 0.0244141ZM54.2599 6.57917H55.9383C57.777 6.57917 58.8957 5.77967 58.8957 4.66019C58.8957 3.38115 57.7762 3.14138 56.0978 3.14138H54.9783L54.2599 6.57917ZM52.8204 13.4539H54.0193C56.2574 13.4539 57.6968 12.814 57.6968 11.2158C57.6968 9.7772 56.6576 9.53743 54.6592 9.53743H53.62L52.8204 13.4539ZM75.9216 13.2935C75.6827 14.4121 75.5223 15.4522 75.3628 16.57H71.4463L71.7663 14.5717H71.6861C70.4872 15.9318 69.2082 16.8098 66.9701 16.8098C64.4922 16.8098 63.133 14.9719 63.133 12.5742C63.133 11.7747 63.2132 11.2952 63.4529 9.93591L64.5724 4.18065H68.9684L67.7696 10.0161C67.6894 10.5759 67.5298 11.2149 67.5298 11.8549C67.5298 12.5742 68.0094 13.2935 69.2082 13.2935C70.9668 13.2935 72.0862 11.6953 72.3252 9.85655L73.524 4.1815H77.8398L75.9216 13.2935ZM77.6819 13.2935C78.8006 13.7739 80.0002 14.0136 81.118 14.0136C81.8382 14.0136 83.5165 13.9326 83.5165 12.8942C83.5165 11.1356 78.4806 12.0144 78.4806 7.93842C78.4806 5.06036 81.839 3.94174 84.7154 3.94174C85.7555 3.94174 87.2734 4.18151 88.7931 4.66104L87.9134 7.45889C86.7948 6.97935 85.7555 6.73958 84.4773 6.73958C83.5174 6.73958 82.479 6.97935 82.479 7.85907C82.479 9.21831 87.8332 9.13811 87.8332 12.1757C87.8332 15.2935 85.1949 16.8115 81.9986 16.8115C80.159 16.8917 78.1606 16.5717 76.8022 16.1733L77.6819 13.2935ZM90.8708 4.18065H95.1866L92.6285 16.57H88.3127L90.8708 4.18065ZM96.6252 7.45889C96.865 6.33941 97.0254 5.30013 97.1849 4.1815H101.101L100.783 6.17984H100.862C102.061 4.8206 103.341 3.94174 105.578 3.94174C108.055 3.94174 109.416 5.78052 109.416 8.17819C109.416 8.97769 109.335 9.45722 109.096 10.8156L107.976 16.57H103.58L104.7 10.7354C104.86 10.1757 105.02 9.53658 105.02 8.89663C105.02 8.17733 104.54 7.45803 103.341 7.45803C101.582 7.45803 100.463 9.05705 100.223 10.895L98.9435 16.5692H94.7071L96.6252 7.45889ZM120.686 16.1724C119.248 16.5709 117.648 16.8106 116.37 16.8106C112.294 16.8106 110.056 14.3345 110.056 11.2158C110.056 8.33775 111.974 3.94174 117.408 3.94174C120.686 3.94174 123.164 5.54075 123.164 9.29766C123.164 9.7772 123.004 10.8967 122.844 11.616H114.051C114.132 12.9744 114.772 14.0145 117.408 14.0145C118.528 14.0145 120.046 13.6945 121.246 13.1339L120.686 16.1724ZM119.567 9.21746C119.567 7.85821 119.088 6.73958 117.488 6.73958C115.65 6.73958 114.612 8.01862 114.372 9.21746H119.567ZM123.484 13.2935C124.523 13.7739 125.722 14.0136 126.92 14.0136C127.64 14.0136 129.319 13.9326 129.319 12.8942C129.319 11.1356 124.203 12.0144 124.203 7.93842C124.203 5.06036 127.561 3.94174 130.439 3.94174C131.558 3.94174 132.997 4.18151 134.595 4.66104L133.635 7.45889C132.597 6.97935 131.557 6.73958 130.279 6.73958C129.319 6.73958 128.28 6.97935 128.28 7.85907C128.28 9.21831 133.555 9.13811 133.555 12.1757C133.555 15.2935 130.997 16.8115 127.801 16.8115C125.963 16.8917 123.963 16.5717 122.604 16.1733L123.484 13.2935ZM134.275 13.2935C135.315 13.7739 136.513 14.0136 137.711 14.0136C138.432 14.0136 140.11 13.9326 140.11 12.8942C140.11 11.1356 134.996 12.0144 134.996 7.93842C134.996 5.06036 138.352 3.94174 141.23 3.94174C142.35 3.94174 143.788 4.18151 145.387 4.66104L144.428 7.45889C143.388 6.97935 142.35 6.73958 141.07 6.73958C140.11 6.73958 139.072 6.97935 139.072 7.85907C139.072 9.21831 144.348 9.13811 144.348 12.1757C144.348 15.2935 141.79 16.8115 138.592 16.8115C136.754 16.8917 134.756 16.5717 133.396 16.1733L134.275 13.2935ZM17.4894 0.0244141H13.0926L11.4142 7.61759H15.8111L16.7701 3.14138H18.1285C19.248 3.14138 20.3675 3.46135 20.3675 5.06037C20.3675 7.05871 18.7685 7.61844 17.0099 7.61844H15.8111L10.5354 11.9351L9.49609 16.5709H13.9723L15.1711 10.7363H17.4092C21.4059 10.7363 24.7635 8.65772 24.7635 4.58168C24.7635 0.344384 21.0868 0.0244141 17.4894 0.0244141Z" fill="#3B5998"/>
<path fill-rule="evenodd" clip-rule="evenodd" d="M2.3029 7.61914H11.4157L0.384766 16.5707L2.3029 7.61914Z" fill="#3B5998"/>
<path fill-rule="evenodd" clip-rule="evenodd" d="M91.6708 0.0244141H95.9073L95.2673 3.14223H91.0309L91.6708 0.0244141ZM146.666 2.58249C146.666 1.62257 147.385 0.903272 148.344 0.903272C149.224 0.903272 149.943 1.62257 149.943 2.58249C149.943 3.54156 149.224 4.26085 148.344 4.26085C147.385 4.26085 146.666 3.54156 146.666 2.58249ZM148.344 4.58083C148.608 4.58345 148.869 4.53355 149.112 4.43405C149.356 4.33456 149.577 4.18746 149.763 4.00138C149.949 3.81529 150.097 3.59395 150.196 3.35031C150.296 3.10668 150.345 2.84565 150.343 2.58249C150.343 1.38281 149.465 0.583299 148.344 0.583299C147.224 0.583299 146.266 1.38281 146.266 2.58249C146.267 3.70197 147.225 4.58083 148.344 4.58083ZM147.865 2.74205H148.344L148.904 3.70197H149.304L148.664 2.74205C148.984 2.66184 149.224 2.50228 149.224 2.1021C149.224 1.62257 148.984 1.3828 148.424 1.3828H147.544V3.70111H147.864V2.74205H147.865ZM147.865 2.42293V1.70277H148.344C148.664 1.70277 148.904 1.78298 148.904 2.02275C148.904 2.42293 148.584 2.42293 148.344 2.42293H147.865ZM11.6545 27.6027C11.0948 27.6027 10.6152 27.6027 10.2151 27.5225C9.81573 27.362 9.49575 27.2827 9.17578 27.1223L9.49575 25.6837H9.65531C9.97529 25.9217 10.2953 26.1624 10.6946 26.3219C11.0146 26.4021 11.4139 26.4823 11.8943 26.4823C12.2936 26.4823 12.6136 26.4823 12.8533 26.3219C13.0931 26.2417 13.1733 26.002 13.1733 25.7639C13.1733 25.6837 13.1733 25.6837 13.0931 25.6035C13.0931 25.5233 13.0129 25.4431 12.9335 25.3637C12.8533 25.3637 12.6938 25.2835 12.5334 25.2033C12.3738 25.2033 12.134 25.1231 11.8943 25.0429C11.5743 24.9627 11.3345 24.8825 11.0948 24.7229C10.855 24.6427 10.6152 24.5625 10.4548 24.4029C10.2944 24.3227 10.2151 24.1632 10.0546 23.9234C9.97529 23.763 9.97529 23.6051 9.97529 23.3654C9.97529 22.7254 10.2151 22.2459 10.7748 21.9251C11.3345 21.5249 12.0538 21.3653 12.9335 21.3653C13.4131 21.3653 13.8124 21.3653 14.2126 21.4455C14.6128 21.5257 14.9319 21.6059 15.2519 21.7655L14.9319 23.1256H14.7715C14.5161 22.9479 14.249 22.7877 13.972 22.6461C13.5718 22.4857 13.2527 22.4857 12.7731 22.4857C12.3738 22.4857 12.1332 22.4857 11.8943 22.6461C11.6545 22.7263 11.5743 22.8858 11.5743 23.1256V23.3654C11.6545 23.4456 11.7347 23.4456 11.8141 23.5241C11.9231 23.6252 12.0656 23.6823 12.2142 23.6845C12.3747 23.7647 12.6136 23.8449 12.8542 23.9243C13.5735 24.0847 14.053 24.3244 14.2928 24.5642C14.6128 24.804 14.7723 25.1239 14.7723 25.5241C14.7723 25.9226 14.6921 26.1624 14.5326 26.4823C14.3608 26.7335 14.1438 26.9505 13.8926 27.1223C13.5726 27.2827 13.2527 27.4423 12.8533 27.5225C12.5342 27.6027 12.134 27.6027 11.6545 27.6027ZM17.5702 24.6444C17.6504 24.3244 17.8099 24.1649 18.0497 23.9243C18.2101 23.7638 18.4499 23.6845 18.7699 23.6845C19.0096 23.6845 19.2494 23.7647 19.3287 23.9243C19.4892 24.0045 19.5685 24.164 19.5685 24.4038V24.484C19.5685 24.5642 19.5685 24.5642 19.4883 24.6444H17.5702ZM19.4081 27.5225C19.7281 27.4423 20.048 27.362 20.287 27.2827L20.6069 26.083H20.4465C20.2067 26.2434 19.967 26.3228 19.647 26.403C19.4072 26.5634 19.0873 26.5634 18.7681 26.5634C18.2886 26.5634 17.9686 26.4832 17.7289 26.3236C17.4891 26.1632 17.4089 25.9234 17.4089 25.6052V25.525H20.7665C20.8467 25.3646 20.9269 25.1248 20.9269 24.9652C21.0071 24.8048 21.0071 24.6453 21.0071 24.4055C21.0071 23.926 20.8467 23.5258 20.4474 23.2075C20.1274 22.9678 19.6479 22.8073 18.9286 22.8073C18.449 22.8073 18.0488 22.8875 17.7297 23.0471C17.3304 23.2075 17.0104 23.3671 16.7707 23.6068C16.5309 23.9251 16.2911 24.1649 16.2109 24.5651C16.0505 24.885 15.9712 25.2852 15.9712 25.6845C15.9712 26.3228 16.2109 26.8032 16.6111 27.1231C17.0113 27.4431 17.6504 27.6027 18.3697 27.6027C18.769 27.6027 19.089 27.6027 19.4081 27.5225ZM26.1224 24.3244H26.0422C25.9629 24.3244 25.8826 24.3244 25.7222 24.2442H25.4023C25.2418 24.2442 25.0021 24.2442 24.8425 24.3244C24.6821 24.3244 24.4432 24.4046 24.2828 24.4849L23.5635 27.5233H22.124L23.1633 22.9669H24.6028L24.4423 23.6068C24.7623 23.3671 25.0012 23.2067 25.3212 23.1273C25.561 22.9669 25.8809 22.9669 26.1207 22.9669H26.4415L26.1224 24.3244ZM32.5978 22.966L29.8 27.5225H28.1216L27.4014 22.966H28.9211L29.2402 26.083L30.9988 22.966H32.5978ZM35.1559 22.966L34.1166 27.5225H32.6772L33.7164 22.966H35.1559ZM35.6354 21.1264L35.3957 22.2459H33.7966L34.0364 21.1264H35.6354ZM38.2729 27.6027C37.9529 27.6027 37.6338 27.6027 37.394 27.5225C37.1542 27.4423 36.9145 27.2827 36.6747 27.1223C36.5151 26.9619 36.3547 26.8023 36.1952 26.5625C36.0964 26.28 36.0426 25.9837 36.0356 25.6845C36.0356 25.2844 36.115 24.8842 36.2754 24.5651C36.4349 24.2451 36.6747 23.9251 36.9153 23.6853C37.2353 23.3671 37.5553 23.2067 37.9546 23.0471C38.3608 22.8832 38.7956 22.8017 39.2336 22.8073C39.5536 22.8073 39.7934 22.8073 40.1125 22.8875C40.3522 22.9678 40.592 23.048 40.8318 23.2075L40.5118 24.4055H40.3514C40.1848 24.2462 39.9963 24.1114 39.7917 24.0053C39.5519 23.9251 39.3923 23.8449 39.0724 23.8449C38.673 23.8449 38.2729 24.0053 37.9529 24.3244C37.7131 24.6444 37.5536 25.0446 37.5536 25.6043C37.5536 25.9226 37.6338 26.1624 37.7933 26.3228C38.0331 26.4832 38.2729 26.5625 38.5928 26.5625C38.9128 26.5625 39.1526 26.5625 39.3923 26.4021C39.6321 26.3219 39.8719 26.1624 40.0314 26.0019H40.1918L39.8719 27.2818C39.6321 27.4423 39.313 27.5216 39.1526 27.5216C38.9128 27.6027 38.5928 27.6027 38.2729 27.6027ZM42.9095 24.6444C43.069 24.3244 43.2295 24.1649 43.389 23.9243C43.6288 23.7638 43.8685 23.6845 44.1885 23.6845C44.4283 23.6845 44.5878 23.7647 44.7474 23.9243C44.9078 24.0045 44.9078 24.164 44.9078 24.4038V24.6444H42.9095ZM44.8276 27.5225C45.1476 27.4423 45.3873 27.362 45.7065 27.2827L45.9462 26.083H45.7867C45.6263 26.2434 45.3865 26.3228 45.0674 26.403C44.7474 26.5634 44.5076 26.5634 44.1885 26.5634C43.709 26.5634 43.389 26.4832 43.1492 26.3236C42.9095 26.1632 42.8293 25.9234 42.8293 25.6052V25.525H46.1869C46.2671 25.3646 46.2671 25.1248 46.3473 24.9652C46.3473 24.8048 46.4266 24.6453 46.4266 24.4055C46.4266 23.926 46.1869 23.5258 45.8669 23.2075C45.5469 22.9678 44.988 22.8073 44.3481 22.8073C43.9101 22.8021 43.4754 22.8836 43.069 23.0471C42.7491 23.2075 42.4291 23.3671 42.1893 23.6068C41.8702 23.9251 41.7098 24.1649 41.5502 24.5651C41.47 24.885 41.3898 25.2852 41.3898 25.6845C41.3898 26.3228 41.5502 26.8032 42.0298 27.1231C42.4291 27.4431 42.9888 27.6027 43.7883 27.6027C44.1885 27.6027 44.5085 27.6027 44.8276 27.5225ZM56.2588 21.4464L56.019 22.5667H53.2211L52.9814 23.6845H55.5395L55.2997 24.8048H52.6614L52.3414 26.3228H55.1393L54.8995 27.5225H50.5035L51.9421 21.4464H56.2588ZM58.3373 25.205L57.0583 22.966H58.5771L59.3766 24.3244L60.6556 22.966H62.334L60.0157 25.205L61.2947 27.5225H59.6957L58.9764 26.083L57.618 27.5225H55.9388L58.3373 25.205ZM64.8921 27.6027C64.5721 27.6027 64.2521 27.6027 64.0123 27.5225C63.7734 27.4423 63.5328 27.2827 63.293 27.1223C63.1326 26.9619 62.9731 26.8023 62.8135 26.5625C62.7145 26.2801 62.6604 25.9838 62.6531 25.6845C62.6531 25.2844 62.7333 24.8842 62.8929 24.5651C63.0533 24.2451 63.293 23.9251 63.5328 23.6853C63.8528 23.3671 64.1719 23.2067 64.5721 23.0471C64.9783 22.8832 65.4131 22.8017 65.8511 22.8073C66.1711 22.8073 66.4109 22.8073 66.73 22.8875C66.9698 22.9678 67.2095 23.048 67.4493 23.2075L67.1293 24.4055H66.9697C66.803 24.2464 66.6145 24.1116 66.41 24.0053C66.1702 23.9251 65.9305 23.8449 65.6907 23.8449C65.2905 23.8449 64.8912 24.0053 64.5712 24.3244C64.3315 24.6444 64.1711 25.0446 64.1711 25.6043C64.1711 25.9226 64.2513 26.1624 64.4108 26.3228C64.6506 26.4832 64.8903 26.5625 65.2103 26.5625C65.5303 26.5625 65.7701 26.5625 66.0098 26.4021C66.2496 26.3219 66.4894 26.1624 66.6489 26.0019H66.8093L66.4894 27.2818C66.2496 27.4423 65.9296 27.5216 65.7701 27.5216C65.5312 27.6027 65.2112 27.6027 64.8921 27.6027ZM69.928 24.6444C70.0074 24.3244 70.1678 24.1649 70.3273 23.9243C70.5671 23.7638 70.8069 23.6845 71.1268 23.6845C71.3666 23.6845 71.527 23.7647 71.6866 23.9243C71.847 24.0045 71.9263 24.164 71.9263 24.4038C71.9263 24.4038 71.9263 24.484 71.8461 24.484V24.6444H69.928ZM71.7668 27.5225C72.0868 27.4423 72.3257 27.362 72.6456 27.2827L72.8854 26.083H72.725C72.5646 26.2434 72.3248 26.3228 72.0057 26.403C71.6857 26.5634 71.446 26.5634 71.126 26.5634C70.6465 26.5634 70.3265 26.4832 70.0867 26.3236C69.8469 26.1632 69.7667 25.9234 69.7667 25.6052V25.525H73.1243C73.2045 25.3646 73.2839 25.1248 73.2839 24.9652C73.2839 24.8057 73.3641 24.6453 73.3641 24.4055C73.3641 23.926 73.2037 23.5258 72.8044 23.2075C72.4844 22.9678 71.9246 22.8073 71.2855 22.8073C70.806 22.8073 70.4067 22.8875 70.0867 23.0471C69.6874 23.2075 69.3674 23.3671 69.1276 23.6068C68.8879 23.9251 68.6481 24.1649 68.4877 24.5651C68.4075 24.885 68.3281 25.2852 68.3281 25.6845C68.3281 26.3228 68.4877 26.8032 68.9672 27.1231C69.3674 27.4431 69.9272 27.6027 70.7267 27.6027C71.1268 27.6027 71.4468 27.6027 71.7668 27.5225ZM77.3625 21.2083L75.9222 27.5225H74.4844L75.9222 21.2083H77.3625ZM80.4786 21.2083L79.0408 27.5225H77.522L79.0408 21.2083H80.4786ZM82.5571 24.6444C82.6373 24.3244 82.7969 24.1649 82.9573 23.9243C83.1971 23.7638 83.4369 23.6845 83.7577 23.6845C83.9974 23.6845 84.1579 23.7647 84.3174 23.9243C84.4778 24.0045 84.5572 24.164 84.5572 24.4038V24.484C84.5572 24.5642 84.477 24.5642 84.477 24.6444H82.5571ZM84.3968 27.5225C84.715 27.4423 85.035 27.362 85.2748 27.2827L85.5947 26.083H85.355C85.1946 26.2434 84.9548 26.3228 84.6365 26.403C84.3968 26.5634 84.0768 26.5634 83.7568 26.5634C83.2773 26.5634 82.9565 26.4832 82.7167 26.3236C82.4786 26.1632 82.3984 25.9234 82.3984 25.6052V25.525H85.7552C85.8354 25.3646 85.9156 25.1248 85.9156 24.9652C85.9958 24.8048 85.9958 24.6453 85.9958 24.4055C85.9958 23.926 85.8354 23.5258 85.436 23.2075C85.1161 22.9678 84.6374 22.8073 83.9181 22.8073C83.4386 22.8073 83.0384 22.8875 82.7184 23.0471C82.3199 23.2075 82 23.3671 81.7602 23.6068C81.5204 23.9251 81.2807 24.1649 81.1202 24.5651C81.04 24.885 80.9598 25.2852 80.9598 25.6845C80.9598 26.3228 81.1996 26.8032 81.5998 27.1231C81.9999 27.4431 82.6382 27.6027 83.3583 27.6027C83.7568 27.6027 84.0768 27.6027 84.3968 27.5225ZM92.4695 24.0045C92.4695 24.0847 92.4695 24.1649 92.3893 24.2442V24.5642L91.6708 27.5225H90.2305L90.71 25.2041C90.7903 25.0437 90.7903 24.9644 90.7903 24.804C90.8705 24.7238 90.8705 24.5642 90.8705 24.484C90.8705 24.3236 90.7903 24.164 90.71 24.0838C90.6298 24.0036 90.4703 24.0036 90.2305 24.0036H89.8303C89.6699 24.0838 89.5104 24.164 89.2706 24.2434L88.5521 27.5216H87.1118L88.152 22.9652H89.5906L89.5104 23.4447C89.8303 23.205 90.0701 23.1247 90.3107 22.9652C90.5505 22.885 90.8705 22.8048 91.1111 22.8048C91.5906 22.8048 91.9097 22.885 92.0693 23.1248C92.3091 23.286 92.4695 23.606 92.4695 24.0045ZM95.8271 27.6027C95.5071 27.6027 95.1871 27.6027 94.9473 27.5225C94.6756 27.4566 94.4267 27.3183 94.2272 27.1223C93.9874 26.9619 93.8287 26.8023 93.7485 26.5625C93.6683 26.3228 93.5881 26.0028 93.5881 25.6845C93.5881 25.2844 93.6683 24.8842 93.8279 24.5651C93.9866 24.2451 94.1461 23.9251 94.4661 23.6853C94.7059 23.3671 95.106 23.2067 95.5062 23.0471C95.9064 22.8875 96.3049 22.8073 96.7844 22.8073C97.0242 22.8073 97.3442 22.8073 97.5848 22.8875C97.9047 22.9678 98.1445 23.048 98.3851 23.2075L98.0652 24.4055H97.8254C97.665 24.2451 97.5054 24.0855 97.3459 24.0053C97.1061 23.9251 96.8663 23.8449 96.6257 23.8449C96.1462 23.8449 95.8271 24.0053 95.5071 24.3244C95.2673 24.6444 95.1069 25.0446 95.1069 25.6043C95.1069 25.9226 95.1871 26.1624 95.3467 26.3228C95.5062 26.4832 95.8262 26.5625 96.1453 26.5625C96.4653 26.5625 96.7051 26.5625 96.9457 26.4021C97.1854 26.3219 97.3459 26.1624 97.5054 26.0019H97.7452L97.4252 27.2818C97.1052 27.4423 96.8655 27.5216 96.6249 27.5216C96.4653 27.6027 96.1453 27.6027 95.8271 27.6027ZM100.464 24.6444C100.544 24.3244 100.703 24.1649 100.943 23.9243C101.102 23.7638 101.422 23.6845 101.662 23.6845C101.982 23.6845 102.141 23.7647 102.302 23.9243C102.382 24.0045 102.462 24.164 102.462 24.4038V24.6444H100.464ZM102.302 27.5225L103.26 27.2827L103.5 26.083H103.341C103.101 26.2434 102.861 26.3228 102.621 26.403C102.301 26.5634 101.981 26.5634 101.661 26.5634C101.261 26.5634 100.86 26.4832 100.622 26.3236C100.462 26.1632 100.302 25.9234 100.302 25.6052V25.525H103.738C103.738 25.3646 103.819 25.1248 103.899 24.9652V24.4055C103.899 23.926 103.739 23.5258 103.419 23.2075C103.021 22.9678 102.541 22.8073 101.821 22.8073C101.421 22.8073 101.021 22.8875 100.623 23.0471C100.223 23.2075 99.9031 23.3671 99.6633 23.6068C99.4236 23.9251 99.2631 24.1649 99.1036 24.5651C98.9432 24.885 98.8638 25.2852 98.8638 25.6845C98.8638 26.3228 99.1036 26.8032 99.5038 27.1231C99.9833 27.4431 100.544 27.6027 101.342 27.6027C101.662 27.6027 101.982 27.6027 102.302 27.5225Z" fill="#3B5998"/>
</svg>
