<svg width="80" height="80" viewBox="0 0 80 80" fill="none" xmlns="http://www.w3.org/2000/svg">
<path d="M51.5415 67.6504H68.2812C69.5756 67.6504 70.6249 66.601 70.6249 65.3066C70.6249 64.0123 69.5756 62.9629 68.2812 62.9629H51.5415C50.2471 62.9629 49.1978 64.0123 49.1978 65.3066C49.1978 66.601 50.2471 67.6504 51.5415 67.6504Z" fill="#CFDBFD"/>
<path d="M55.948 21.3568C57.2424 21.3568 58.2917 20.3074 58.2917 19.013V11.6421H68.2813C69.5757 11.6421 70.625 10.5927 70.625 9.29834C70.625 8.00396 69.5757 6.95459 68.2813 6.95459H55.948C54.6536 6.95459 53.6042 8.00396 53.6042 9.29834V19.013C53.6042 20.3074 54.6536 21.3568 55.948 21.3568Z" fill="#CFDBFD"/>
<path d="M65.9155 39.5073H77.6562C78.9505 39.5073 79.9999 38.4579 79.9999 37.1636C79.9999 35.8692 78.9505 34.8198 77.6562 34.8198H65.9155C64.6212 34.8198 63.5718 35.8692 63.5718 37.1636C63.5718 38.4579 64.6212 39.5073 65.9155 39.5073Z" fill="#CFDBFD"/>
<path d="M62.4656 50.6079H72.3267C73.621 50.6079 74.6704 49.5585 74.6704 48.2642C74.6704 46.9698 73.621 45.9204 72.3267 45.9204H62.4656C61.1712 45.9204 60.1218 46.9698 60.1218 48.2642C60.1218 49.5585 61.1712 50.6079 62.4656 50.6079Z" fill="#CFDBFD"/>
<path d="M72.9687 13.5579C75.3212 13.5579 77.2284 11.6508 77.2284 9.29826C77.2284 6.9457 75.3212 5.03857 72.9687 5.03857C70.6161 5.03857 68.709 6.9457 68.709 9.29826C68.709 11.6508 70.6161 13.5579 72.9687 13.5579Z" fill="#FFE370"/>
<path d="M72.9687 69.5662C75.3212 69.5662 77.2284 67.6591 77.2284 65.3066C77.2284 62.954 75.3212 61.0469 72.9687 61.0469C70.6161 61.0469 68.709 62.954 68.709 65.3066C68.709 67.6591 70.6161 69.5662 72.9687 69.5662Z" fill="#FFE370"/>
<path d="M65.9375 9.29834C65.9375 5.42131 69.0917 2.26709 72.9688 2.26709C76.8458 2.26709 80 5.42131 80 9.29834C80 13.1754 76.8458 16.3296 72.9688 16.3296C69.0917 16.3296 65.9375 13.1755 65.9375 9.29834ZM70.625 9.29834C70.625 10.5907 71.6764 11.6421 72.9688 11.6421C74.2611 11.6421 75.3125 10.5907 75.3125 9.29834C75.3125 8.006 74.2611 6.95459 72.9688 6.95459C71.6764 6.95459 70.625 8.006 70.625 9.29834Z" fill="#FFB54C"/>
<path d="M65.9375 65.3066C65.9375 61.4296 69.0917 58.2754 72.9688 58.2754C76.8458 58.2754 80 61.4296 80 65.3066C80 69.1837 76.8458 72.3379 72.9688 72.3379C69.0917 72.3379 65.9375 69.1837 65.9375 65.3066ZM70.625 65.3066C70.625 66.599 71.6764 67.6504 72.9688 67.6504C74.2611 67.6504 75.3125 66.599 75.3125 65.3066C75.3125 64.0143 74.2611 62.9629 72.9688 62.9629C71.6764 62.9629 70.625 64.0141 70.625 65.3066Z" fill="#FFB54C"/>
<path d="M28.4584 67.6504H11.7188C10.4244 67.6504 9.375 66.601 9.375 65.3066C9.375 64.0123 10.4244 62.9629 11.7188 62.9629H28.4584C29.7528 62.9629 30.8022 64.0123 30.8022 65.3066C30.8022 66.601 29.7528 67.6504 28.4584 67.6504Z" fill="#E8F1FD"/>
<path d="M24.052 21.3568C22.7577 21.3568 21.7083 20.3074 21.7083 19.013V11.6421H11.7188C10.4244 11.6421 9.375 10.5927 9.375 9.29834C9.375 8.00396 10.4244 6.95459 11.7188 6.95459H24.052C25.3464 6.95459 26.3958 8.00396 26.3958 9.29834V19.013C26.3958 20.3074 25.3464 21.3568 24.052 21.3568Z" fill="#E8F1FD"/>
<path d="M14.0844 39.5073H2.34375C1.04937 39.5073 0 38.4579 0 37.1636C0 35.8692 1.04937 34.8198 2.34375 34.8198H14.0844C15.3787 34.8198 16.4281 35.8692 16.4281 37.1636C16.4281 38.4579 15.3787 39.5073 14.0844 39.5073Z" fill="#E8F1FD"/>
<path d="M17.5344 50.6079H7.67334C6.37896 50.6079 5.32959 49.5585 5.32959 48.2642C5.32959 46.9698 6.37896 45.9204 7.67334 45.9204H17.5344C18.8288 45.9204 19.8782 46.9698 19.8782 48.2642C19.8782 49.5585 18.8288 50.6079 17.5344 50.6079Z" fill="#E8F1FD"/>
<path d="M7.03117 13.5579C9.38373 13.5579 11.2909 11.6508 11.2909 9.29826C11.2909 6.9457 9.38373 5.03857 7.03117 5.03857C4.67861 5.03857 2.77148 6.9457 2.77148 9.29826C2.77148 11.6508 4.67861 13.5579 7.03117 13.5579Z" fill="#FFEFB2"/>
<path d="M7.03117 69.5662C9.38373 69.5662 11.2909 67.6591 11.2909 65.3066C11.2909 62.954 9.38373 61.0469 7.03117 61.0469C4.67861 61.0469 2.77148 62.954 2.77148 65.3066C2.77148 67.6591 4.67861 69.5662 7.03117 69.5662Z" fill="#FFEFB2"/>
<path d="M7.03125 16.3296C3.15422 16.3296 0 13.1754 0 9.29834C0 5.42131 3.15422 2.26709 7.03125 2.26709C10.9083 2.26709 14.0625 5.42131 14.0625 9.29834C14.0625 13.1754 10.9083 16.3296 7.03125 16.3296ZM7.03125 6.95459C5.73891 6.95459 4.6875 8.006 4.6875 9.29834C4.6875 10.5907 5.73891 11.6421 7.03125 11.6421C8.32359 11.6421 9.375 10.5907 9.375 9.29834C9.375 8.006 8.32359 6.95459 7.03125 6.95459Z" fill="#FFE370"/>
<path d="M7.03125 72.3379C3.15422 72.3379 0 69.1837 0 65.3066C0 61.4296 3.15422 58.2754 7.03125 58.2754C10.9083 58.2754 14.0625 61.4296 14.0625 65.3066C14.0625 69.1837 10.9083 72.3379 7.03125 72.3379ZM7.03125 62.9629C5.73891 62.9629 4.6875 64.0143 4.6875 65.3066C4.6875 66.599 5.73891 67.6504 7.03125 67.6504C8.32359 67.6504 9.375 66.599 9.375 65.3066C9.375 64.0143 8.32359 62.9629 7.03125 62.9629Z" fill="#FFE370"/>
<path d="M65.0626 40.3504C62.3126 50.1676 55.7313 64.1316 40.0001 75.6598C27.4032 66.4457 18.9985 54.6504 15.0001 40.5691C12.7001 32.4676 12.5766 25.8066 12.6735 22.8504C28.811 17.7082 36.6735 12.216 40.0001 9.29883C43.3266 12.216 51.1891 17.7098 67.3298 22.8504C67.4298 25.7691 67.3157 32.3035 65.0626 40.3504Z" fill="#7D889E"/>
<path d="M65.0625 40.3504C62.3125 50.1676 55.7312 64.1316 40 75.6598V9.29883C43.3266 12.216 51.1891 17.7098 67.3297 22.8504C67.4297 25.7691 67.3156 32.3035 65.0625 40.3504Z" fill="#3B5998"/>
<path d="M41.4494 74.259L40.0001 72.51C28.6001 64.1709 20.9923 53.4943 17.3735 40.7506C15.2923 33.4178 15.1813 27.3896 15.2688 24.7146C29.8735 20.06 36.9891 15.0896 40.0001 12.449L41.4494 11.0082V8.94355L40.0001 6.75684C39.2501 6.75684 38.5766 7.11621 38.136 7.72246C37.8907 8.01934 32.2266 14.635 12.3438 20.7178C11.4532 20.9896 10.8079 21.7646 10.7016 22.6912C10.6626 23.0271 9.78913 31.0521 12.8032 41.8162C14.5688 48.1193 17.311 54.0725 20.9532 59.5115C25.4954 66.2959 31.4516 72.285 38.6594 77.3115C39.0626 77.5928 39.5313 77.7334 40.0001 77.7334L41.4494 75.8479V74.259Z" fill="#3B5998"/>
<path d="M41.3523 24.4223L40 22.499C34.4671 22.499 29.9656 27.0006 29.9656 32.5334V36.1631C29.9656 37.4568 31.0156 38.5068 32.3093 38.5068C33.6046 38.5068 34.6531 37.4568 34.6531 36.1631V32.5334C34.6531 29.585 37.0515 27.1865 40 27.1865L41.3523 25.6889V24.4223Z" fill="#404A80"/>
<path d="M67.1969 41.8162C65.4312 48.1193 62.6891 54.0725 59.0469 59.5115C54.5047 66.2959 48.5484 72.285 41.3406 77.3115C40.9375 77.5928 40.4687 77.7334 40 77.7334V72.51C54.2375 62.0756 60.1938 49.4381 62.6828 40.5522C64.7219 33.2693 64.825 27.3553 64.7344 24.7146C50.1266 20.0615 43.0109 15.0896 40 12.449V6.75684C40.75 6.75684 41.4234 7.11621 41.8641 7.72246C42.1094 8.01934 47.7734 14.635 67.6562 20.7178C68.5469 20.9896 69.1922 21.7646 69.2984 22.6912C69.3375 23.0271 70.2109 31.0521 67.1969 41.8162Z" fill="#453D83"/>
<path d="M50.0344 32.5334V36.1631C50.0344 37.4568 48.9844 38.5068 47.6906 38.5068C46.3953 38.5068 45.3469 37.4568 45.3469 36.1631V32.5334C45.3469 29.585 42.9484 27.1865 40 27.1865V22.499C45.5328 22.499 50.0344 27.0006 50.0344 32.5334Z" fill="#283366"/>
<path d="M42.0971 38.5062L39.9999 33.8193H31.3749C29.0187 33.8193 27.103 35.735 27.103 38.0912V51.5131C27.103 53.8693 29.0187 55.785 31.3749 55.785H39.9999L42.0971 50.1912V38.5062Z" fill="#FFE370"/>
<path d="M52.8969 38.0912V51.5131C52.8969 53.8693 50.9813 55.785 48.625 55.785H40V33.8193H48.625C50.9813 33.8193 52.8969 35.735 52.8969 38.0912Z" fill="#FFB54C"/>
<path d="M42.3438 43.6631V45.9412C42.3438 47.2365 41.2938 48.285 40 48.285C38.7063 48.285 37.6562 47.2365 37.6562 45.9412V43.6631C37.6562 42.3678 38.7063 41.3193 40 41.3193C41.2938 41.3193 42.3438 42.3676 42.3438 43.6631Z" fill="#404A80"/>
<path d="M42.3438 43.6631V45.9412C42.3438 47.2365 41.2937 48.285 40 48.285V41.3193C41.2937 41.3193 42.3438 42.3676 42.3438 43.6631Z" fill="#283366"/>
</svg>
