<svg width="80" height="80" viewBox="0 0 80 80" fill="none" xmlns="http://www.w3.org/2000/svg">
<g clip-path="url(#clip0_2437_623)">
<path d="M61.6667 26.6668H11.6667C5.22333 26.6668 0 21.4435 0 15.0002C0 8.55683 5.22333 3.3335 11.6667 3.3335H61.6667C68.11 3.3335 73.3333 8.55683 73.3333 15.0002C73.3333 21.4435 68.11 26.6668 61.6667 26.6668Z" fill="#CFD8DC"/>
<path d="M61.6667 49.9998H11.6667C5.22333 49.9998 0 44.7765 0 38.3332C0 31.8898 5.22333 26.6665 11.6667 26.6665H61.6667C68.11 26.6665 73.3333 31.8898 73.3333 38.3332C73.3333 44.7765 68.11 49.9998 61.6667 49.9998Z" fill="#90A4AE"/>
<path d="M61.6667 73.3333H11.6667C5.22333 73.3333 0 68.11 0 61.6667C0 55.2233 5.22333 50 11.6667 50H61.6667C68.11 50 73.3333 55.2233 73.3333 61.6667C73.3333 68.11 68.11 73.3333 61.6667 73.3333Z" fill="#CFD8DC"/>
<path d="M36.6667 3.3335H11.6667C5.22333 3.3335 0 8.55683 0 15.0002C0 21.4435 5.22333 26.6668 11.6667 26.6668H36.6667V3.3335Z" fill="#B4BCC0"/>
<path d="M36.6667 26.6665H11.6667C5.22333 26.6665 0 31.8898 0 38.3332C0 44.7765 5.22333 49.9998 11.6667 49.9998H36.6667V26.6665Z" fill="#7D8F97"/>
<path d="M36.6667 50H11.6667C5.22333 50 0 55.2233 0 61.6667C0 68.11 5.22333 73.3333 11.6667 73.3333H36.6667V50Z" fill="#B4BCC0"/>
<path d="M11.6668 18.3332C13.5078 18.3332 15.0002 16.8408 15.0002 14.9998C15.0002 13.1589 13.5078 11.6665 11.6668 11.6665C9.82588 11.6665 8.3335 13.1589 8.3335 14.9998C8.3335 16.8408 9.82588 18.3332 11.6668 18.3332Z" fill="#FAFAFA"/>
<path d="M28.3336 18.3332C30.1745 18.3332 31.6669 16.8408 31.6669 14.9998C31.6669 13.1589 30.1745 11.6665 28.3336 11.6665C26.4926 11.6665 25.0002 13.1589 25.0002 14.9998C25.0002 16.8408 26.4926 18.3332 28.3336 18.3332Z" fill="#FAFAFA"/>
<path d="M11.6668 41.6667C13.5078 41.6667 15.0002 40.1743 15.0002 38.3333C15.0002 36.4924 13.5078 35 11.6668 35C9.82588 35 8.3335 36.4924 8.3335 38.3333C8.3335 40.1743 9.82588 41.6667 11.6668 41.6667Z" fill="#FAFAFA"/>
<path d="M28.3336 41.6667C30.1745 41.6667 31.6669 40.1743 31.6669 38.3333C31.6669 36.4924 30.1745 35 28.3336 35C26.4926 35 25.0002 36.4924 25.0002 38.3333C25.0002 40.1743 26.4926 41.6667 28.3336 41.6667Z" fill="#FAFAFA"/>
<path d="M11.6668 64.9997C13.5078 64.9997 15.0002 63.5073 15.0002 61.6663C15.0002 59.8254 13.5078 58.333 11.6668 58.333C9.82588 58.333 8.3335 59.8254 8.3335 61.6663C8.3335 63.5073 9.82588 64.9997 11.6668 64.9997Z" fill="#FAFAFA"/>
<path d="M28.3336 64.9997C30.1745 64.9997 31.6669 63.5073 31.6669 61.6663C31.6669 59.8254 30.1745 58.333 28.3336 58.333C26.4926 58.333 25.0002 59.8254 25.0002 61.6663C25.0002 63.5073 26.4926 64.9997 28.3336 64.9997Z" fill="#FAFAFA"/>
<path d="M15.0002 15H8.3335C8.3335 16.8433 9.82683 18.3333 11.6668 18.3333C13.5068 18.3333 15.0002 16.8433 15.0002 15Z" fill="#DADADA"/>
<path d="M31.6667 15H25C25 16.8433 26.4933 18.3333 28.3333 18.3333C30.1733 18.3333 31.6667 16.8433 31.6667 15Z" fill="#DADADA"/>
<path d="M15.0002 38.3335H8.3335C8.3335 40.1768 9.82683 41.6668 11.6668 41.6668C13.5068 41.6668 15.0002 40.1768 15.0002 38.3335Z" fill="#DADADA"/>
<path d="M31.6667 38.3335H25C25 40.1768 26.4933 41.6668 28.3333 41.6668C30.1733 41.6668 31.6667 40.1768 31.6667 38.3335Z" fill="#DADADA"/>
<path d="M15.0002 61.6665H8.3335C8.3335 63.5098 9.82683 64.9998 11.6668 64.9998C13.5068 64.9998 15.0002 63.5098 15.0002 61.6665Z" fill="#DADADA"/>
<path d="M31.6667 61.6665H25C25 63.5098 26.4933 64.9998 28.3333 64.9998C30.1733 64.9998 31.6667 63.5098 31.6667 61.6665Z" fill="#DADADA"/>
<path d="M58.3333 40C48.2233 40 40 48.2267 40 58.3333C40 68.44 48.2233 76.6667 58.3333 76.6667C68.4433 76.6667 76.6667 68.44 76.6667 58.3333C76.6667 48.2267 68.4433 40 58.3333 40Z" fill="white"/>
<path d="M58.3334 36.6665C46.3867 36.6665 36.6667 46.3865 36.6667 58.3332C36.6667 70.2798 46.3867 79.9998 58.3334 79.9998C70.2801 79.9998 80.0001 70.2798 80.0001 58.3332C80.0001 46.3865 70.2801 36.6665 58.3334 36.6665ZM41.6667 58.3332C41.6667 49.1432 49.1434 41.6665 58.3334 41.6665C62.0267 41.6665 65.4101 42.9132 68.1767 44.9532L44.9567 68.1765C42.9134 65.4098 41.6667 62.0265 41.6667 58.3332ZM58.3334 74.9998C54.6401 74.9998 51.2567 73.7532 48.4901 71.7132L71.7101 48.4898C73.7534 51.2565 75.0001 54.6398 75.0001 58.3332C75.0001 67.5232 67.5234 74.9998 58.3334 74.9998Z" fill="#F44336"/>
<path d="M44.9567 68.1765C42.9134 65.4098 41.6667 62.0265 41.6667 58.3332C41.6667 49.1432 49.1434 41.6665 58.3334 41.6665C62.0267 41.6665 65.4101 42.9132 68.1767 44.9532L44.9567 68.1765ZM58.3334 36.6665C46.3867 36.6665 36.6667 46.3865 36.6667 58.3332C36.6667 64.3065 39.0967 69.7232 43.0201 73.6465L73.6467 43.0198C69.7234 39.0965 64.3067 36.6665 58.3334 36.6665Z" fill="#D43A2F"/>
</g>
<defs>
<clipPath id="clip0_2437_623">
<rect width="80" height="80" fill="white"/>
</clipPath>
</defs>
</svg>
