<svg width="110" height="109" viewBox="0 0 110 109" fill="none" xmlns="http://www.w3.org/2000/svg">
<mask id="mask0_2437_349" style="mask-type:alpha" maskUnits="userSpaceOnUse" x="18" y="3" width="78" height="97">
<path d="M70.6117 3.71599L41.4966 51.2079L18.8388 81.6664L54.9623 99.5728L49.879 74.6646L52.1745 64.2997L61.604 53.2943L77.4959 51.9784L95.0094 39.175L92.7626 32.8877L70.6117 3.71599Z" fill="#D9D9D9"/>
</mask>
<g mask="url(#mask0_2437_349)">
<path d="M-81.9041 -16.6884L-12.5912 -3.81407C-12.5912 -3.81407 56.7218 9.0603 56.7204 9.0717C57.6664 9.24632 58.5754 9.66868 59.3598 10.3374C61.7281 12.3708 61.9996 15.9389 59.9645 18.3023L14.3963 71.6139C14.3252 71.7048 14.2588 71.794 14.1811 71.8817L-3.91465 93.0525L-1.17455 93.5622L43.4563 101.851C44.433 102.02 45.3746 102.442 46.1773 103.131C48.5456 105.164 48.8171 108.733 46.7837 111.101L17.484 145.378C17.4129 145.469 17.3466 145.558 17.2688 145.646L-10.1387 177.709L1.29668 210.045L58.7392 142.847C58.8152 142.754 58.8978 142.665 58.9821 142.58L116.223 75.6126L52.6237 63.7998L37.1776 81.8694C35.1476 84.2474 31.5733 84.532 29.1971 82.5069C26.8191 80.477 26.5362 76.9075 28.5595 74.5264L64.282 32.7343L62.7484 33.0369C61.4446 33.2956 60.1936 32.9846 59.3138 32.1863C58.8781 31.7912 58.5522 31.2913 58.3549 30.7238C58.1509 30.1531 58.0803 29.5129 58.1472 28.8454C58.2679 27.6569 58.827 26.459 59.7157 25.4815C60.6045 24.5039 61.7403 23.8363 62.918 23.6063L78.7805 20.4684C80.0843 20.2097 81.3354 20.5208 82.2151 21.319C83.09 22.119 83.519 23.3346 83.38 24.6551L81.7386 40.742C81.4893 43.2036 79.3926 45.5019 76.9678 45.9812C75.664 46.2398 74.413 45.9288 73.5332 45.1305C72.6535 44.3323 72.2293 43.1149 72.3635 41.7962L72.4893 40.5458L61.0889 53.8809L127.82 66.2761C128.792 66.447 129.733 66.8686 130.541 67.5563C132.907 69.5849 133.179 73.153 131.147 75.5261L67.5562 149.922C67.4899 150.012 67.4188 150.102 67.341 150.19L3.76895 224.563C3.11858 225.445 2.20767 226.147 1.0984 226.538C-1.85527 227.582 -5.09688 226.035 -6.14147 223.082L-21.9385 178.419C-22.6889 176.304 -22.1041 174.033 -20.6254 172.539L8.63943 138.302C8.71541 138.209 8.79797 138.119 8.88224 138.035L31.832 111.186L-3.22493 104.674L-15.265 102.437C-16.335 102.312 -17.3809 101.873 -18.2596 101.124C-20.6376 99.094 -20.9205 95.5245 -18.8971 93.1434L5.5565 64.5357C5.63249 64.4431 5.71504 64.3536 5.79932 64.2689L45.0097 18.3943L-14.682 7.3067L-74.328 -3.77537L-62.0226 31.0254C-50.3466 33.1741 -38.689 35.4549 -27.0669 37.8956C-22.4732 38.861 -17.8919 39.8527 -13.3251 40.926C-8.67678 42.0137 -1.67273 42.5813 0.595299 45.9214C3.52097 50.2317 -0.131165 53.6257 -2.57148 56.3358C-4.8453 58.8555 -6.98128 61.5168 -9.18219 64.1031C-11.2912 66.5803 -13.4034 69.064 -15.5124 71.5412C-15.9797 72.0954 -17.5001 74.6022 -18.2425 74.753L-16.5003 74.4085C-15.1965 74.1499 -13.9454 74.4609 -13.0657 75.2592C-12.63 75.6543 -12.3041 76.1541 -12.1067 76.7217C-11.9027 77.2924 -11.8322 77.9326 -11.9008 78.5953C-12.0215 79.7837 -12.5758 80.9799 -13.4693 81.9591C-14.3581 82.9367 -15.4939 83.6044 -16.6716 83.8343L-32.5341 86.9722C-33.8379 87.2309 -35.089 86.9199 -35.9687 86.1216C-36.8436 85.3217 -37.2726 84.106 -37.1336 82.7855L-35.4922 66.6986C-35.2428 64.237 -33.1462 61.9388 -30.7214 61.4595C-29.4176 61.2008 -28.1665 61.5119 -27.2868 62.3101C-26.407 63.1083 -25.9829 64.3257 -26.117 65.6445L-26.2274 66.7093L-13.7351 52.0951L-67.0349 41.5867C-69.0795 41.3138 -70.9043 39.9315 -71.6426 37.8501C-71.6426 37.8501 -88.2958 -9.23929 -88.2861 -9.24275C-88.6111 -10.152 -88.7025 -11.1556 -88.5147 -12.1717C-87.9356 -15.2366 -84.9786 -17.2641 -81.9041 -16.6884Z" fill="#3B5998"/>
</g>
</svg>
