<svg width="109" height="109" viewBox="0 0 109 109" fill="none" xmlns="http://www.w3.org/2000/svg">
<mask id="mask0_2437_352" style="mask-type:alpha" maskUnits="userSpaceOnUse" x="13" y="8" width="78" height="97">
<path d="M37.6235 104.504L67.5877 57.543L90.7895 27.4968L54.9937 8.94391L59.6284 33.9395L57.147 44.2615L47.5211 55.0955L31.6081 56.1255L13.8673 68.6119L16.0007 74.9386L37.6235 104.504Z" fill="#D9D9D9"/>
</mask>
<g mask="url(#mask0_2437_352)">
<path d="M189.745 127.646L120.674 113.527C120.674 113.527 51.6041 99.4088 51.6057 99.3974C50.663 99.2058 49.7617 98.7672 48.9895 98.0845C46.6581 96.0088 46.4508 92.4364 48.528 90.1099L95.0473 37.6262C95.1201 37.5366 95.188 37.4487 95.2673 37.3623L113.741 16.5203L111.01 15.9614L66.5356 6.87172C65.5621 6.68509 64.6283 6.24658 63.8382 5.54283C61.5068 3.46718 61.2995 -0.105217 63.3751 -2.43659L93.2863 -36.1816C93.3591 -36.2712 93.427 -36.3591 93.5063 -36.4455L121.486 -68.0107L110.634 -100.547L51.9923 -34.3925C51.9146 -34.3013 51.8304 -34.2133 51.7446 -34.1302L-6.69122 31.7975L56.6856 44.7518L72.4541 26.9628C74.5265 24.6217 78.1053 24.4014 80.4448 26.4689C82.7859 28.5412 83.0046 32.1152 80.9388 34.4595L44.4708 75.6026L46.0095 75.3276C47.3177 75.0925 48.563 75.4259 49.4282 76.2399C49.8568 76.6428 50.1736 77.1484 50.3608 77.7195C50.5544 78.2937 50.6135 78.9351 50.5346 79.6012C50.3926 80.7874 49.812 81.975 48.9058 82.9364C47.9997 83.8978 46.852 84.545 45.6704 84.7537L29.754 87.606C28.4458 87.8411 27.2005 87.5076 26.3353 86.6937C25.4749 85.8782 25.0678 84.655 25.2305 83.3372L27.1609 67.2824C27.4544 64.8257 29.5921 62.5655 32.0251 62.1299C33.3334 61.8947 34.5786 62.2282 35.4439 63.0421C36.3091 63.856 36.7113 65.0809 36.5535 66.397L36.4052 67.6448L48.0435 54.5169L-18.4539 40.9239C-19.4226 40.7357 -20.3564 40.2972 -21.1514 39.595C-23.4811 37.5243 -23.6885 33.9519 -21.6145 31.6156L43.3039 -41.6254C43.3718 -41.7133 43.4446 -41.8029 43.5238 -41.8893L108.423 -115.107C109.089 -115.977 110.012 -116.662 111.128 -117.033C114.1 -118.025 117.314 -116.42 118.305 -113.448L133.296 -68.5082C134.009 -66.3798 133.383 -64.1201 131.878 -62.6531L102.002 -28.9472C101.925 -28.856 101.84 -28.768 101.755 -28.6848L78.326 -2.25317L113.26 4.88827L125.258 7.34115C126.326 7.48522 127.363 7.94289 128.228 8.7081C130.57 10.7805 130.788 14.3544 128.722 16.6988L103.758 44.8623C103.681 44.9535 103.597 45.0415 103.511 45.1246L63.4821 90.2868L122.965 102.446L182.402 114.598L170.724 79.5821C159.089 77.2237 147.474 74.7338 135.898 72.0845C131.322 71.0367 126.759 69.9628 122.213 68.8076C117.585 67.6365 110.592 66.943 108.384 63.5627C105.537 59.2005 109.249 55.8726 111.738 53.2069C114.056 50.7285 116.24 48.106 118.487 45.5597C120.64 43.1208 122.797 40.6755 124.95 38.2366C125.427 37.6909 126.992 35.2119 127.737 35.0745L125.989 35.3875C124.681 35.6227 123.436 35.2892 122.57 34.4753C122.142 34.0724 121.825 33.5667 121.638 32.9957C121.444 32.4214 121.385 31.7801 121.466 31.1188C121.608 29.9327 122.183 28.7467 123.094 27.7836C124.001 26.8223 125.148 26.1751 126.33 25.9663L142.246 23.1141C143.555 22.8789 144.8 23.2124 145.665 24.0263C146.525 24.8419 146.932 26.0651 146.77 27.3828L144.839 43.4377C144.546 45.8944 142.408 48.1545 139.975 48.5901C138.667 48.8253 137.422 48.4919 136.556 47.6779C135.691 46.864 135.289 45.6392 135.447 44.3231L135.576 43.2604L122.823 57.6477L175.926 69.1126C177.965 69.4222 179.765 70.8371 180.465 72.9314C180.465 72.9314 196.269 120.313 196.26 120.316C196.568 121.231 196.641 122.236 196.435 123.248C195.801 126.302 192.808 128.276 189.745 127.646Z" fill="#3B5998"/>
</g>
</svg>
